G04 #@! TF.GenerationSoftware,KiCad,Pcbnew,7.0.8*
G04 #@! TF.CreationDate,2024-10-25T10:17:10+09:00*
G04 #@! TF.ProjectId,Juice connector board,4a756963-6520-4636-9f6e-6e6563746f72,rev?*
G04 #@! TF.SameCoordinates,Original*
G04 #@! TF.FileFunction,Soldermask,Top*
G04 #@! TF.FilePolarity,Negative*
%FSLAX46Y46*%
G04 Gerber Fmt 4.6, Leading zero omitted, Abs format (unit mm)*
G04 Created by KiCad (PCBNEW 7.0.8) date 2024-10-25 10:17:10*
%MOMM*%
%LPD*%
G01*
G04 APERTURE LIST*
G04 Aperture macros list*
%AMRoundRect*
0 Rectangle with rounded corners*
0 $1 Rounding radius*
0 $2 $3 $4 $5 $6 $7 $8 $9 X,Y pos of 4 corners*
0 Add a 4 corners polygon primitive as box body*
4,1,4,$2,$3,$4,$5,$6,$7,$8,$9,$2,$3,0*
0 Add four circle primitives for the rounded corners*
1,1,$1+$1,$2,$3*
1,1,$1+$1,$4,$5*
1,1,$1+$1,$6,$7*
1,1,$1+$1,$8,$9*
0 Add four rect primitives between the rounded corners*
20,1,$1+$1,$2,$3,$4,$5,0*
20,1,$1+$1,$4,$5,$6,$7,0*
20,1,$1+$1,$6,$7,$8,$9,0*
20,1,$1+$1,$8,$9,$2,$3,0*%
G04 Aperture macros list end*
%ADD10RoundRect,0.250000X0.250000X0.475000X-0.250000X0.475000X-0.250000X-0.475000X0.250000X-0.475000X0*%
%ADD11RoundRect,0.200000X-0.275000X0.200000X-0.275000X-0.200000X0.275000X-0.200000X0.275000X0.200000X0*%
%ADD12R,1.700000X1.700000*%
%ADD13O,1.700000X1.700000*%
%ADD14C,3.200000*%
%ADD15RoundRect,0.200000X-0.200000X-0.275000X0.200000X-0.275000X0.200000X0.275000X-0.200000X0.275000X0*%
%ADD16R,2.000000X1.500000*%
%ADD17R,2.000000X3.800000*%
%ADD18R,3.500000X3.500000*%
%ADD19RoundRect,0.750000X-0.750000X-1.000000X0.750000X-1.000000X0.750000X1.000000X-0.750000X1.000000X0*%
%ADD20RoundRect,0.875000X-0.875000X-0.875000X0.875000X-0.875000X0.875000X0.875000X-0.875000X0.875000X0*%
G04 APERTURE END LIST*
D10*
X116256000Y-115743000D03*
X114356000Y-115743000D03*
D11*
X147600000Y-86000000D03*
X147600000Y-87650000D03*
D12*
X196000000Y-82000000D03*
D13*
X196000000Y-84540000D03*
X196000000Y-87080000D03*
X196000000Y-89620000D03*
X196000000Y-92160000D03*
X196000000Y-94700000D03*
X196000000Y-97240000D03*
X196000000Y-99780000D03*
X196000000Y-102320000D03*
X196000000Y-104860000D03*
X196000000Y-107400000D03*
X196000000Y-109940000D03*
X196000000Y-112480000D03*
X196000000Y-115020000D03*
X196000000Y-117560000D03*
X196000000Y-120100000D03*
X196000000Y-122640000D03*
X196000000Y-125180000D03*
X196000000Y-127720000D03*
D14*
X196000000Y-71500000D03*
D12*
X164200000Y-82000000D03*
D13*
X164200000Y-84540000D03*
X164200000Y-87080000D03*
X164200000Y-89620000D03*
X164200000Y-92160000D03*
X164200000Y-94700000D03*
X164200000Y-97240000D03*
X164200000Y-99780000D03*
X164200000Y-102320000D03*
X164200000Y-104860000D03*
X164200000Y-107400000D03*
X164200000Y-109940000D03*
X164200000Y-112480000D03*
X164200000Y-115020000D03*
X164200000Y-117560000D03*
X164200000Y-120100000D03*
X164200000Y-122640000D03*
X164200000Y-125180000D03*
X164200000Y-127720000D03*
D10*
X116261000Y-111933000D03*
X114361000Y-111933000D03*
D14*
X196000000Y-133500000D03*
D12*
X151710000Y-78300000D03*
D13*
X154250000Y-78300000D03*
X151710000Y-80840000D03*
X154250000Y-80840000D03*
X151710000Y-83380000D03*
X154250000Y-83380000D03*
X151710000Y-85920000D03*
X154250000Y-85920000D03*
X151710000Y-88460000D03*
X154250000Y-88460000D03*
X151710000Y-91000000D03*
X154250000Y-91000000D03*
X151710000Y-93540000D03*
X154250000Y-93540000D03*
X151710000Y-96080000D03*
X154250000Y-96080000D03*
X151710000Y-98620000D03*
X154250000Y-98620000D03*
X151710000Y-101160000D03*
X154250000Y-101160000D03*
X151710000Y-103700000D03*
X154250000Y-103700000D03*
X151710000Y-106240000D03*
X154250000Y-106240000D03*
X151710000Y-108780000D03*
X154250000Y-108780000D03*
X151710000Y-111320000D03*
X154250000Y-111320000D03*
X151710000Y-113860000D03*
X154250000Y-113860000D03*
X151710000Y-116400000D03*
X154250000Y-116400000D03*
X151710000Y-118940000D03*
X154250000Y-118940000D03*
X151710000Y-121480000D03*
X154250000Y-121480000D03*
X151710000Y-124020000D03*
X154250000Y-124020000D03*
X151710000Y-126560000D03*
X154250000Y-126560000D03*
D10*
X114285000Y-80310000D03*
X112385000Y-80310000D03*
D14*
X104000000Y-73500000D03*
D15*
X163500000Y-133904000D03*
X165150000Y-133904000D03*
D14*
X104000000Y-131500000D03*
X153000000Y-73500000D03*
D16*
X115621000Y-106627000D03*
X115621000Y-104327000D03*
D17*
X109321000Y-104327000D03*
D16*
X115621000Y-102027000D03*
D10*
X114285000Y-84120000D03*
X112385000Y-84120000D03*
D14*
X153000000Y-131500000D03*
D18*
X114100000Y-91300000D03*
D19*
X108100000Y-91300000D03*
D20*
X111100000Y-96000000D03*
M02*
