M48
; DRILL file {KiCad 7.0.8} date Fri Oct 25 10:17:36 2024
; FORMAT={-:-/ absolute / metric / decimal}
; #@! TF.CreationDate,2024-10-25T10:17:36+09:00
; #@! TF.GenerationSoftware,Kicad,Pcbnew,7.0.8
; #@! TF.FileFunction,MixedPlating,1,2
FMAT,2
METRIC
; #@! TA.AperFunction,Plated,PTH,ViaDrill
T1C0.300
; #@! TA.AperFunction,Plated,PTH,ViaDrill
T2C0.500
; #@! TA.AperFunction,Plated,PTH,ComponentDrill
T3C1.000
; #@! TA.AperFunction,NonPlated,NPTH,ComponentDrill
T4C3.200
%
G90
G05
T1
X147.6Y-89.4
X151.0Y-136.2
X156.896Y-94.661
X156.896Y-112.568
X157.912Y-103.424
X157.912Y-108.504
X158.928Y-93.264
X158.928Y-116.124
X159.944Y-90.228
X159.944Y-120.188
X161.4Y-99.3
X161.468Y-100.884
X161.468Y-120.696
X168.707Y-124.506
X171.0Y-110.8
X171.2Y-90.4
X171.8Y-112.8
X172.8Y-115.6
X174.0Y-121.0
X175.8Y-122.8
T2
X108.0Y-82.5
X111.0Y-113.5
X115.621Y-108.879
X149.0Y-108.5
X149.0Y-126.0
X149.5Y-88.0
X157.0Y-93.0
X157.0Y-114.5
X157.0Y-118.5
X157.5Y-83.0
T3
X151.71Y-78.3
X151.71Y-80.84
X151.71Y-83.38
X151.71Y-85.92
X151.71Y-88.46
X151.71Y-91.0
X151.71Y-93.54
X151.71Y-96.08
X151.71Y-98.62
X151.71Y-101.16
X151.71Y-103.7
X151.71Y-106.24
X151.71Y-108.78
X151.71Y-111.32
X151.71Y-113.86
X151.71Y-116.4
X151.71Y-118.94
X151.71Y-121.48
X151.71Y-124.02
X151.71Y-126.56
X154.25Y-78.3
X154.25Y-80.84
X154.25Y-83.38
X154.25Y-85.92
X154.25Y-88.46
X154.25Y-91.0
X154.25Y-93.54
X154.25Y-96.08
X154.25Y-98.62
X154.25Y-101.16
X154.25Y-103.7
X154.25Y-106.24
X154.25Y-108.78
X154.25Y-111.32
X154.25Y-113.86
X154.25Y-116.4
X154.25Y-118.94
X154.25Y-121.48
X154.25Y-124.02
X154.25Y-126.56
X164.2Y-82.0
X164.2Y-84.54
X164.2Y-87.08
X164.2Y-89.62
X164.2Y-92.16
X164.2Y-94.7
X164.2Y-97.24
X164.2Y-99.78
X164.2Y-102.32
X164.2Y-104.86
X164.2Y-107.4
X164.2Y-109.94
X164.2Y-112.48
X164.2Y-115.02
X164.2Y-117.56
X164.2Y-120.1
X164.2Y-122.64
X164.2Y-125.18
X164.2Y-127.72
X196.0Y-82.0
X196.0Y-84.54
X196.0Y-87.08
X196.0Y-89.62
X196.0Y-92.16
X196.0Y-94.7
X196.0Y-97.24
X196.0Y-99.78
X196.0Y-102.32
X196.0Y-104.86
X196.0Y-107.4
X196.0Y-109.94
X196.0Y-112.48
X196.0Y-115.02
X196.0Y-117.56
X196.0Y-120.1
X196.0Y-122.64
X196.0Y-125.18
X196.0Y-127.72
T4
X104.0Y-73.5
X104.0Y-131.5
X153.0Y-73.5
X153.0Y-131.5
X196.0Y-71.5
X196.0Y-133.5
T3
G00X108.1Y-90.3
M15
G01X108.1Y-92.3
M16
G05
G00X110.1Y-96.0
M15
G01X112.1Y-96.0
M16
G05
G00X114.1Y-90.3
M15
G01X114.1Y-92.3
M16
G05
T0
M30
