G04 #@! TF.GenerationSoftware,KiCad,Pcbnew,7.0.8*
G04 #@! TF.CreationDate,2024-10-25T10:17:10+09:00*
G04 #@! TF.ProjectId,Juice connector board,4a756963-6520-4636-9f6e-6e6563746f72,rev?*
G04 #@! TF.SameCoordinates,Original*
G04 #@! TF.FileFunction,Legend,Top*
G04 #@! TF.FilePolarity,Positive*
%FSLAX46Y46*%
G04 Gerber Fmt 4.6, Leading zero omitted, Abs format (unit mm)*
G04 Created by KiCad (PCBNEW 7.0.8) date 2024-10-25 10:17:10*
%MOMM*%
%LPD*%
G01*
G04 APERTURE LIST*
%ADD10C,0.300000*%
%ADD11C,0.150000*%
%ADD12C,0.120000*%
G04 APERTURE END LIST*
D10*
X110325939Y-134966114D02*
X110325939Y-133766114D01*
X110325939Y-134108971D02*
X110411653Y-133937542D01*
X110411653Y-133937542D02*
X110497368Y-133851828D01*
X110497368Y-133851828D02*
X110668796Y-133766114D01*
X110668796Y-133766114D02*
X110840225Y-133766114D01*
X112211654Y-134966114D02*
X112211654Y-134023257D01*
X112211654Y-134023257D02*
X112125939Y-133851828D01*
X112125939Y-133851828D02*
X111954511Y-133766114D01*
X111954511Y-133766114D02*
X111611654Y-133766114D01*
X111611654Y-133766114D02*
X111440225Y-133851828D01*
X112211654Y-134880400D02*
X112040225Y-134966114D01*
X112040225Y-134966114D02*
X111611654Y-134966114D01*
X111611654Y-134966114D02*
X111440225Y-134880400D01*
X111440225Y-134880400D02*
X111354511Y-134708971D01*
X111354511Y-134708971D02*
X111354511Y-134537542D01*
X111354511Y-134537542D02*
X111440225Y-134366114D01*
X111440225Y-134366114D02*
X111611654Y-134280400D01*
X111611654Y-134280400D02*
X112040225Y-134280400D01*
X112040225Y-134280400D02*
X112211654Y-134194685D01*
X113840225Y-134966114D02*
X113840225Y-133166114D01*
X113840225Y-134880400D02*
X113668796Y-134966114D01*
X113668796Y-134966114D02*
X113325939Y-134966114D01*
X113325939Y-134966114D02*
X113154510Y-134880400D01*
X113154510Y-134880400D02*
X113068796Y-134794685D01*
X113068796Y-134794685D02*
X112983082Y-134623257D01*
X112983082Y-134623257D02*
X112983082Y-134108971D01*
X112983082Y-134108971D02*
X113068796Y-133937542D01*
X113068796Y-133937542D02*
X113154510Y-133851828D01*
X113154510Y-133851828D02*
X113325939Y-133766114D01*
X113325939Y-133766114D02*
X113668796Y-133766114D01*
X113668796Y-133766114D02*
X113840225Y-133851828D01*
X114697367Y-134966114D02*
X114697367Y-133766114D01*
X114697367Y-133166114D02*
X114611653Y-133251828D01*
X114611653Y-133251828D02*
X114697367Y-133337542D01*
X114697367Y-133337542D02*
X114783081Y-133251828D01*
X114783081Y-133251828D02*
X114697367Y-133166114D01*
X114697367Y-133166114D02*
X114697367Y-133337542D01*
X115811653Y-134966114D02*
X115640224Y-134880400D01*
X115640224Y-134880400D02*
X115554510Y-134794685D01*
X115554510Y-134794685D02*
X115468796Y-134623257D01*
X115468796Y-134623257D02*
X115468796Y-134108971D01*
X115468796Y-134108971D02*
X115554510Y-133937542D01*
X115554510Y-133937542D02*
X115640224Y-133851828D01*
X115640224Y-133851828D02*
X115811653Y-133766114D01*
X115811653Y-133766114D02*
X116068796Y-133766114D01*
X116068796Y-133766114D02*
X116240224Y-133851828D01*
X116240224Y-133851828D02*
X116325939Y-133937542D01*
X116325939Y-133937542D02*
X116411653Y-134108971D01*
X116411653Y-134108971D02*
X116411653Y-134623257D01*
X116411653Y-134623257D02*
X116325939Y-134794685D01*
X116325939Y-134794685D02*
X116240224Y-134880400D01*
X116240224Y-134880400D02*
X116068796Y-134966114D01*
X116068796Y-134966114D02*
X115811653Y-134966114D01*
X117183081Y-134966114D02*
X117183081Y-133166114D01*
X117183081Y-133851828D02*
X117354510Y-133766114D01*
X117354510Y-133766114D02*
X117697367Y-133766114D01*
X117697367Y-133766114D02*
X117868795Y-133851828D01*
X117868795Y-133851828D02*
X117954510Y-133937542D01*
X117954510Y-133937542D02*
X118040224Y-134108971D01*
X118040224Y-134108971D02*
X118040224Y-134623257D01*
X118040224Y-134623257D02*
X117954510Y-134794685D01*
X117954510Y-134794685D02*
X117868795Y-134880400D01*
X117868795Y-134880400D02*
X117697367Y-134966114D01*
X117697367Y-134966114D02*
X117354510Y-134966114D01*
X117354510Y-134966114D02*
X117183081Y-134880400D01*
X119497366Y-134880400D02*
X119325938Y-134966114D01*
X119325938Y-134966114D02*
X118983081Y-134966114D01*
X118983081Y-134966114D02*
X118811652Y-134880400D01*
X118811652Y-134880400D02*
X118725938Y-134708971D01*
X118725938Y-134708971D02*
X118725938Y-134023257D01*
X118725938Y-134023257D02*
X118811652Y-133851828D01*
X118811652Y-133851828D02*
X118983081Y-133766114D01*
X118983081Y-133766114D02*
X119325938Y-133766114D01*
X119325938Y-133766114D02*
X119497366Y-133851828D01*
X119497366Y-133851828D02*
X119583081Y-134023257D01*
X119583081Y-134023257D02*
X119583081Y-134194685D01*
X119583081Y-134194685D02*
X118725938Y-134366114D01*
X120354509Y-134966114D02*
X120354509Y-133766114D01*
X120354509Y-134108971D02*
X120440223Y-133937542D01*
X120440223Y-133937542D02*
X120525938Y-133851828D01*
X120525938Y-133851828D02*
X120697366Y-133766114D01*
X120697366Y-133766114D02*
X120868795Y-133766114D01*
X121468795Y-134966114D02*
X121468795Y-133766114D01*
X121468795Y-134108971D02*
X121554509Y-133937542D01*
X121554509Y-133937542D02*
X121640224Y-133851828D01*
X121640224Y-133851828D02*
X121811652Y-133766114D01*
X121811652Y-133766114D02*
X121983081Y-133766114D01*
X122411652Y-133766114D02*
X122840224Y-134966114D01*
X123268795Y-133766114D02*
X122840224Y-134966114D01*
X122840224Y-134966114D02*
X122668795Y-135394685D01*
X122668795Y-135394685D02*
X122583081Y-135480400D01*
X122583081Y-135480400D02*
X122411652Y-135566114D01*
X123954510Y-134280400D02*
X125325939Y-134280400D01*
X126183081Y-133766114D02*
X126183081Y-135308971D01*
X126183081Y-135308971D02*
X126097367Y-135480400D01*
X126097367Y-135480400D02*
X125925938Y-135566114D01*
X125925938Y-135566114D02*
X125840224Y-135566114D01*
X126183081Y-133166114D02*
X126097367Y-133251828D01*
X126097367Y-133251828D02*
X126183081Y-133337542D01*
X126183081Y-133337542D02*
X126268795Y-133251828D01*
X126268795Y-133251828D02*
X126183081Y-133166114D01*
X126183081Y-133166114D02*
X126183081Y-133337542D01*
X127811653Y-133766114D02*
X127811653Y-134966114D01*
X127040224Y-133766114D02*
X127040224Y-134708971D01*
X127040224Y-134708971D02*
X127125938Y-134880400D01*
X127125938Y-134880400D02*
X127297367Y-134966114D01*
X127297367Y-134966114D02*
X127554510Y-134966114D01*
X127554510Y-134966114D02*
X127725938Y-134880400D01*
X127725938Y-134880400D02*
X127811653Y-134794685D01*
X128668795Y-134966114D02*
X128668795Y-133766114D01*
X128668795Y-133166114D02*
X128583081Y-133251828D01*
X128583081Y-133251828D02*
X128668795Y-133337542D01*
X128668795Y-133337542D02*
X128754509Y-133251828D01*
X128754509Y-133251828D02*
X128668795Y-133166114D01*
X128668795Y-133166114D02*
X128668795Y-133337542D01*
X130297367Y-134880400D02*
X130125938Y-134966114D01*
X130125938Y-134966114D02*
X129783081Y-134966114D01*
X129783081Y-134966114D02*
X129611652Y-134880400D01*
X129611652Y-134880400D02*
X129525938Y-134794685D01*
X129525938Y-134794685D02*
X129440224Y-134623257D01*
X129440224Y-134623257D02*
X129440224Y-134108971D01*
X129440224Y-134108971D02*
X129525938Y-133937542D01*
X129525938Y-133937542D02*
X129611652Y-133851828D01*
X129611652Y-133851828D02*
X129783081Y-133766114D01*
X129783081Y-133766114D02*
X130125938Y-133766114D01*
X130125938Y-133766114D02*
X130297367Y-133851828D01*
X131754509Y-134880400D02*
X131583081Y-134966114D01*
X131583081Y-134966114D02*
X131240224Y-134966114D01*
X131240224Y-134966114D02*
X131068795Y-134880400D01*
X131068795Y-134880400D02*
X130983081Y-134708971D01*
X130983081Y-134708971D02*
X130983081Y-134023257D01*
X130983081Y-134023257D02*
X131068795Y-133851828D01*
X131068795Y-133851828D02*
X131240224Y-133766114D01*
X131240224Y-133766114D02*
X131583081Y-133766114D01*
X131583081Y-133766114D02*
X131754509Y-133851828D01*
X131754509Y-133851828D02*
X131840224Y-134023257D01*
X131840224Y-134023257D02*
X131840224Y-134194685D01*
X131840224Y-134194685D02*
X130983081Y-134366114D01*
X111097368Y-137778400D02*
X110925939Y-137864114D01*
X110925939Y-137864114D02*
X110583082Y-137864114D01*
X110583082Y-137864114D02*
X110411653Y-137778400D01*
X110411653Y-137778400D02*
X110325939Y-137692685D01*
X110325939Y-137692685D02*
X110240225Y-137521257D01*
X110240225Y-137521257D02*
X110240225Y-137006971D01*
X110240225Y-137006971D02*
X110325939Y-136835542D01*
X110325939Y-136835542D02*
X110411653Y-136749828D01*
X110411653Y-136749828D02*
X110583082Y-136664114D01*
X110583082Y-136664114D02*
X110925939Y-136664114D01*
X110925939Y-136664114D02*
X111097368Y-136749828D01*
X112125939Y-137864114D02*
X111954510Y-137778400D01*
X111954510Y-137778400D02*
X111868796Y-137692685D01*
X111868796Y-137692685D02*
X111783082Y-137521257D01*
X111783082Y-137521257D02*
X111783082Y-137006971D01*
X111783082Y-137006971D02*
X111868796Y-136835542D01*
X111868796Y-136835542D02*
X111954510Y-136749828D01*
X111954510Y-136749828D02*
X112125939Y-136664114D01*
X112125939Y-136664114D02*
X112383082Y-136664114D01*
X112383082Y-136664114D02*
X112554510Y-136749828D01*
X112554510Y-136749828D02*
X112640225Y-136835542D01*
X112640225Y-136835542D02*
X112725939Y-137006971D01*
X112725939Y-137006971D02*
X112725939Y-137521257D01*
X112725939Y-137521257D02*
X112640225Y-137692685D01*
X112640225Y-137692685D02*
X112554510Y-137778400D01*
X112554510Y-137778400D02*
X112383082Y-137864114D01*
X112383082Y-137864114D02*
X112125939Y-137864114D01*
X113497367Y-136664114D02*
X113497367Y-137864114D01*
X113497367Y-136835542D02*
X113583081Y-136749828D01*
X113583081Y-136749828D02*
X113754510Y-136664114D01*
X113754510Y-136664114D02*
X114011653Y-136664114D01*
X114011653Y-136664114D02*
X114183081Y-136749828D01*
X114183081Y-136749828D02*
X114268796Y-136921257D01*
X114268796Y-136921257D02*
X114268796Y-137864114D01*
X115125938Y-136664114D02*
X115125938Y-137864114D01*
X115125938Y-136835542D02*
X115211652Y-136749828D01*
X115211652Y-136749828D02*
X115383081Y-136664114D01*
X115383081Y-136664114D02*
X115640224Y-136664114D01*
X115640224Y-136664114D02*
X115811652Y-136749828D01*
X115811652Y-136749828D02*
X115897367Y-136921257D01*
X115897367Y-136921257D02*
X115897367Y-137864114D01*
X117440223Y-137778400D02*
X117268795Y-137864114D01*
X117268795Y-137864114D02*
X116925938Y-137864114D01*
X116925938Y-137864114D02*
X116754509Y-137778400D01*
X116754509Y-137778400D02*
X116668795Y-137606971D01*
X116668795Y-137606971D02*
X116668795Y-136921257D01*
X116668795Y-136921257D02*
X116754509Y-136749828D01*
X116754509Y-136749828D02*
X116925938Y-136664114D01*
X116925938Y-136664114D02*
X117268795Y-136664114D01*
X117268795Y-136664114D02*
X117440223Y-136749828D01*
X117440223Y-136749828D02*
X117525938Y-136921257D01*
X117525938Y-136921257D02*
X117525938Y-137092685D01*
X117525938Y-137092685D02*
X116668795Y-137264114D01*
X119068795Y-137778400D02*
X118897366Y-137864114D01*
X118897366Y-137864114D02*
X118554509Y-137864114D01*
X118554509Y-137864114D02*
X118383080Y-137778400D01*
X118383080Y-137778400D02*
X118297366Y-137692685D01*
X118297366Y-137692685D02*
X118211652Y-137521257D01*
X118211652Y-137521257D02*
X118211652Y-137006971D01*
X118211652Y-137006971D02*
X118297366Y-136835542D01*
X118297366Y-136835542D02*
X118383080Y-136749828D01*
X118383080Y-136749828D02*
X118554509Y-136664114D01*
X118554509Y-136664114D02*
X118897366Y-136664114D01*
X118897366Y-136664114D02*
X119068795Y-136749828D01*
X119583080Y-136664114D02*
X120268794Y-136664114D01*
X119840223Y-136064114D02*
X119840223Y-137606971D01*
X119840223Y-137606971D02*
X119925937Y-137778400D01*
X119925937Y-137778400D02*
X120097366Y-137864114D01*
X120097366Y-137864114D02*
X120268794Y-137864114D01*
X121125937Y-137864114D02*
X120954508Y-137778400D01*
X120954508Y-137778400D02*
X120868794Y-137692685D01*
X120868794Y-137692685D02*
X120783080Y-137521257D01*
X120783080Y-137521257D02*
X120783080Y-137006971D01*
X120783080Y-137006971D02*
X120868794Y-136835542D01*
X120868794Y-136835542D02*
X120954508Y-136749828D01*
X120954508Y-136749828D02*
X121125937Y-136664114D01*
X121125937Y-136664114D02*
X121383080Y-136664114D01*
X121383080Y-136664114D02*
X121554508Y-136749828D01*
X121554508Y-136749828D02*
X121640223Y-136835542D01*
X121640223Y-136835542D02*
X121725937Y-137006971D01*
X121725937Y-137006971D02*
X121725937Y-137521257D01*
X121725937Y-137521257D02*
X121640223Y-137692685D01*
X121640223Y-137692685D02*
X121554508Y-137778400D01*
X121554508Y-137778400D02*
X121383080Y-137864114D01*
X121383080Y-137864114D02*
X121125937Y-137864114D01*
X122497365Y-137864114D02*
X122497365Y-136664114D01*
X122497365Y-137006971D02*
X122583079Y-136835542D01*
X122583079Y-136835542D02*
X122668794Y-136749828D01*
X122668794Y-136749828D02*
X122840222Y-136664114D01*
X122840222Y-136664114D02*
X123011651Y-136664114D01*
X124983080Y-137864114D02*
X124983080Y-136064114D01*
X124983080Y-136749828D02*
X125154509Y-136664114D01*
X125154509Y-136664114D02*
X125497366Y-136664114D01*
X125497366Y-136664114D02*
X125668794Y-136749828D01*
X125668794Y-136749828D02*
X125754509Y-136835542D01*
X125754509Y-136835542D02*
X125840223Y-137006971D01*
X125840223Y-137006971D02*
X125840223Y-137521257D01*
X125840223Y-137521257D02*
X125754509Y-137692685D01*
X125754509Y-137692685D02*
X125668794Y-137778400D01*
X125668794Y-137778400D02*
X125497366Y-137864114D01*
X125497366Y-137864114D02*
X125154509Y-137864114D01*
X125154509Y-137864114D02*
X124983080Y-137778400D01*
X126868794Y-137864114D02*
X126697365Y-137778400D01*
X126697365Y-137778400D02*
X126611651Y-137692685D01*
X126611651Y-137692685D02*
X126525937Y-137521257D01*
X126525937Y-137521257D02*
X126525937Y-137006971D01*
X126525937Y-137006971D02*
X126611651Y-136835542D01*
X126611651Y-136835542D02*
X126697365Y-136749828D01*
X126697365Y-136749828D02*
X126868794Y-136664114D01*
X126868794Y-136664114D02*
X127125937Y-136664114D01*
X127125937Y-136664114D02*
X127297365Y-136749828D01*
X127297365Y-136749828D02*
X127383080Y-136835542D01*
X127383080Y-136835542D02*
X127468794Y-137006971D01*
X127468794Y-137006971D02*
X127468794Y-137521257D01*
X127468794Y-137521257D02*
X127383080Y-137692685D01*
X127383080Y-137692685D02*
X127297365Y-137778400D01*
X127297365Y-137778400D02*
X127125937Y-137864114D01*
X127125937Y-137864114D02*
X126868794Y-137864114D01*
X129011651Y-137864114D02*
X129011651Y-136921257D01*
X129011651Y-136921257D02*
X128925936Y-136749828D01*
X128925936Y-136749828D02*
X128754508Y-136664114D01*
X128754508Y-136664114D02*
X128411651Y-136664114D01*
X128411651Y-136664114D02*
X128240222Y-136749828D01*
X129011651Y-137778400D02*
X128840222Y-137864114D01*
X128840222Y-137864114D02*
X128411651Y-137864114D01*
X128411651Y-137864114D02*
X128240222Y-137778400D01*
X128240222Y-137778400D02*
X128154508Y-137606971D01*
X128154508Y-137606971D02*
X128154508Y-137435542D01*
X128154508Y-137435542D02*
X128240222Y-137264114D01*
X128240222Y-137264114D02*
X128411651Y-137178400D01*
X128411651Y-137178400D02*
X128840222Y-137178400D01*
X128840222Y-137178400D02*
X129011651Y-137092685D01*
X129868793Y-137864114D02*
X129868793Y-136664114D01*
X129868793Y-137006971D02*
X129954507Y-136835542D01*
X129954507Y-136835542D02*
X130040222Y-136749828D01*
X130040222Y-136749828D02*
X130211650Y-136664114D01*
X130211650Y-136664114D02*
X130383079Y-136664114D01*
X131754508Y-137864114D02*
X131754508Y-136064114D01*
X131754508Y-137778400D02*
X131583079Y-137864114D01*
X131583079Y-137864114D02*
X131240222Y-137864114D01*
X131240222Y-137864114D02*
X131068793Y-137778400D01*
X131068793Y-137778400D02*
X130983079Y-137692685D01*
X130983079Y-137692685D02*
X130897365Y-137521257D01*
X130897365Y-137521257D02*
X130897365Y-137006971D01*
X130897365Y-137006971D02*
X130983079Y-136835542D01*
X130983079Y-136835542D02*
X131068793Y-136749828D01*
X131068793Y-136749828D02*
X131240222Y-136664114D01*
X131240222Y-136664114D02*
X131583079Y-136664114D01*
X131583079Y-136664114D02*
X131754508Y-136749828D01*
X133811650Y-136664114D02*
X134240222Y-137864114D01*
X134240222Y-137864114D02*
X134668793Y-136664114D01*
X135697365Y-136064114D02*
X135868794Y-136064114D01*
X135868794Y-136064114D02*
X136040222Y-136149828D01*
X136040222Y-136149828D02*
X136125937Y-136235542D01*
X136125937Y-136235542D02*
X136211651Y-136406971D01*
X136211651Y-136406971D02*
X136297365Y-136749828D01*
X136297365Y-136749828D02*
X136297365Y-137178400D01*
X136297365Y-137178400D02*
X136211651Y-137521257D01*
X136211651Y-137521257D02*
X136125937Y-137692685D01*
X136125937Y-137692685D02*
X136040222Y-137778400D01*
X136040222Y-137778400D02*
X135868794Y-137864114D01*
X135868794Y-137864114D02*
X135697365Y-137864114D01*
X135697365Y-137864114D02*
X135525937Y-137778400D01*
X135525937Y-137778400D02*
X135440222Y-137692685D01*
X135440222Y-137692685D02*
X135354508Y-137521257D01*
X135354508Y-137521257D02*
X135268794Y-137178400D01*
X135268794Y-137178400D02*
X135268794Y-136749828D01*
X135268794Y-136749828D02*
X135354508Y-136406971D01*
X135354508Y-136406971D02*
X135440222Y-136235542D01*
X135440222Y-136235542D02*
X135525937Y-136149828D01*
X135525937Y-136149828D02*
X135697365Y-136064114D01*
X137068794Y-137692685D02*
X137154508Y-137778400D01*
X137154508Y-137778400D02*
X137068794Y-137864114D01*
X137068794Y-137864114D02*
X136983080Y-137778400D01*
X136983080Y-137778400D02*
X137068794Y-137692685D01*
X137068794Y-137692685D02*
X137068794Y-137864114D01*
X138868794Y-137864114D02*
X137840223Y-137864114D01*
X138354508Y-137864114D02*
X138354508Y-136064114D01*
X138354508Y-136064114D02*
X138183080Y-136321257D01*
X138183080Y-136321257D02*
X138011651Y-136492685D01*
X138011651Y-136492685D02*
X137840223Y-136578400D01*
D11*
X112133333Y-116359580D02*
X112085714Y-116407200D01*
X112085714Y-116407200D02*
X111942857Y-116454819D01*
X111942857Y-116454819D02*
X111847619Y-116454819D01*
X111847619Y-116454819D02*
X111704762Y-116407200D01*
X111704762Y-116407200D02*
X111609524Y-116311961D01*
X111609524Y-116311961D02*
X111561905Y-116216723D01*
X111561905Y-116216723D02*
X111514286Y-116026247D01*
X111514286Y-116026247D02*
X111514286Y-115883390D01*
X111514286Y-115883390D02*
X111561905Y-115692914D01*
X111561905Y-115692914D02*
X111609524Y-115597676D01*
X111609524Y-115597676D02*
X111704762Y-115502438D01*
X111704762Y-115502438D02*
X111847619Y-115454819D01*
X111847619Y-115454819D02*
X111942857Y-115454819D01*
X111942857Y-115454819D02*
X112085714Y-115502438D01*
X112085714Y-115502438D02*
X112133333Y-115550057D01*
X112466667Y-115454819D02*
X113085714Y-115454819D01*
X113085714Y-115454819D02*
X112752381Y-115835771D01*
X112752381Y-115835771D02*
X112895238Y-115835771D01*
X112895238Y-115835771D02*
X112990476Y-115883390D01*
X112990476Y-115883390D02*
X113038095Y-115931009D01*
X113038095Y-115931009D02*
X113085714Y-116026247D01*
X113085714Y-116026247D02*
X113085714Y-116264342D01*
X113085714Y-116264342D02*
X113038095Y-116359580D01*
X113038095Y-116359580D02*
X112990476Y-116407200D01*
X112990476Y-116407200D02*
X112895238Y-116454819D01*
X112895238Y-116454819D02*
X112609524Y-116454819D01*
X112609524Y-116454819D02*
X112514286Y-116407200D01*
X112514286Y-116407200D02*
X112466667Y-116359580D01*
X149484819Y-86991666D02*
X149008628Y-87324999D01*
X149484819Y-87563094D02*
X148484819Y-87563094D01*
X148484819Y-87563094D02*
X148484819Y-87182142D01*
X148484819Y-87182142D02*
X148532438Y-87086904D01*
X148532438Y-87086904D02*
X148580057Y-87039285D01*
X148580057Y-87039285D02*
X148675295Y-86991666D01*
X148675295Y-86991666D02*
X148818152Y-86991666D01*
X148818152Y-86991666D02*
X148913390Y-87039285D01*
X148913390Y-87039285D02*
X148961009Y-87086904D01*
X148961009Y-87086904D02*
X149008628Y-87182142D01*
X149008628Y-87182142D02*
X149008628Y-87563094D01*
X148580057Y-86610713D02*
X148532438Y-86563094D01*
X148532438Y-86563094D02*
X148484819Y-86467856D01*
X148484819Y-86467856D02*
X148484819Y-86229761D01*
X148484819Y-86229761D02*
X148532438Y-86134523D01*
X148532438Y-86134523D02*
X148580057Y-86086904D01*
X148580057Y-86086904D02*
X148675295Y-86039285D01*
X148675295Y-86039285D02*
X148770533Y-86039285D01*
X148770533Y-86039285D02*
X148913390Y-86086904D01*
X148913390Y-86086904D02*
X149484819Y-86658332D01*
X149484819Y-86658332D02*
X149484819Y-86039285D01*
X191866666Y-78954819D02*
X191866666Y-79669104D01*
X191866666Y-79669104D02*
X191819047Y-79811961D01*
X191819047Y-79811961D02*
X191723809Y-79907200D01*
X191723809Y-79907200D02*
X191580952Y-79954819D01*
X191580952Y-79954819D02*
X191485714Y-79954819D01*
X192247619Y-78954819D02*
X192866666Y-78954819D01*
X192866666Y-78954819D02*
X192533333Y-79335771D01*
X192533333Y-79335771D02*
X192676190Y-79335771D01*
X192676190Y-79335771D02*
X192771428Y-79383390D01*
X192771428Y-79383390D02*
X192819047Y-79431009D01*
X192819047Y-79431009D02*
X192866666Y-79526247D01*
X192866666Y-79526247D02*
X192866666Y-79764342D01*
X192866666Y-79764342D02*
X192819047Y-79859580D01*
X192819047Y-79859580D02*
X192771428Y-79907200D01*
X192771428Y-79907200D02*
X192676190Y-79954819D01*
X192676190Y-79954819D02*
X192390476Y-79954819D01*
X192390476Y-79954819D02*
X192295238Y-79907200D01*
X192295238Y-79907200D02*
X192247619Y-79859580D01*
X166266666Y-78754819D02*
X166266666Y-79469104D01*
X166266666Y-79469104D02*
X166219047Y-79611961D01*
X166219047Y-79611961D02*
X166123809Y-79707200D01*
X166123809Y-79707200D02*
X165980952Y-79754819D01*
X165980952Y-79754819D02*
X165885714Y-79754819D01*
X166695238Y-78850057D02*
X166742857Y-78802438D01*
X166742857Y-78802438D02*
X166838095Y-78754819D01*
X166838095Y-78754819D02*
X167076190Y-78754819D01*
X167076190Y-78754819D02*
X167171428Y-78802438D01*
X167171428Y-78802438D02*
X167219047Y-78850057D01*
X167219047Y-78850057D02*
X167266666Y-78945295D01*
X167266666Y-78945295D02*
X167266666Y-79040533D01*
X167266666Y-79040533D02*
X167219047Y-79183390D01*
X167219047Y-79183390D02*
X166647619Y-79754819D01*
X166647619Y-79754819D02*
X167266666Y-79754819D01*
X112233333Y-112559580D02*
X112185714Y-112607200D01*
X112185714Y-112607200D02*
X112042857Y-112654819D01*
X112042857Y-112654819D02*
X111947619Y-112654819D01*
X111947619Y-112654819D02*
X111804762Y-112607200D01*
X111804762Y-112607200D02*
X111709524Y-112511961D01*
X111709524Y-112511961D02*
X111661905Y-112416723D01*
X111661905Y-112416723D02*
X111614286Y-112226247D01*
X111614286Y-112226247D02*
X111614286Y-112083390D01*
X111614286Y-112083390D02*
X111661905Y-111892914D01*
X111661905Y-111892914D02*
X111709524Y-111797676D01*
X111709524Y-111797676D02*
X111804762Y-111702438D01*
X111804762Y-111702438D02*
X111947619Y-111654819D01*
X111947619Y-111654819D02*
X112042857Y-111654819D01*
X112042857Y-111654819D02*
X112185714Y-111702438D01*
X112185714Y-111702438D02*
X112233333Y-111750057D01*
X113090476Y-111988152D02*
X113090476Y-112654819D01*
X112852381Y-111607200D02*
X112614286Y-112321485D01*
X112614286Y-112321485D02*
X113233333Y-112321485D01*
X148066666Y-79454819D02*
X148066666Y-80169104D01*
X148066666Y-80169104D02*
X148019047Y-80311961D01*
X148019047Y-80311961D02*
X147923809Y-80407200D01*
X147923809Y-80407200D02*
X147780952Y-80454819D01*
X147780952Y-80454819D02*
X147685714Y-80454819D01*
X149066666Y-80454819D02*
X148495238Y-80454819D01*
X148780952Y-80454819D02*
X148780952Y-79454819D01*
X148780952Y-79454819D02*
X148685714Y-79597676D01*
X148685714Y-79597676D02*
X148590476Y-79692914D01*
X148590476Y-79692914D02*
X148495238Y-79740533D01*
X110033333Y-81259580D02*
X109985714Y-81307200D01*
X109985714Y-81307200D02*
X109842857Y-81354819D01*
X109842857Y-81354819D02*
X109747619Y-81354819D01*
X109747619Y-81354819D02*
X109604762Y-81307200D01*
X109604762Y-81307200D02*
X109509524Y-81211961D01*
X109509524Y-81211961D02*
X109461905Y-81116723D01*
X109461905Y-81116723D02*
X109414286Y-80926247D01*
X109414286Y-80926247D02*
X109414286Y-80783390D01*
X109414286Y-80783390D02*
X109461905Y-80592914D01*
X109461905Y-80592914D02*
X109509524Y-80497676D01*
X109509524Y-80497676D02*
X109604762Y-80402438D01*
X109604762Y-80402438D02*
X109747619Y-80354819D01*
X109747619Y-80354819D02*
X109842857Y-80354819D01*
X109842857Y-80354819D02*
X109985714Y-80402438D01*
X109985714Y-80402438D02*
X110033333Y-80450057D01*
X110985714Y-81354819D02*
X110414286Y-81354819D01*
X110700000Y-81354819D02*
X110700000Y-80354819D01*
X110700000Y-80354819D02*
X110604762Y-80497676D01*
X110604762Y-80497676D02*
X110509524Y-80592914D01*
X110509524Y-80592914D02*
X110414286Y-80640533D01*
X164158333Y-132928819D02*
X163825000Y-132452628D01*
X163586905Y-132928819D02*
X163586905Y-131928819D01*
X163586905Y-131928819D02*
X163967857Y-131928819D01*
X163967857Y-131928819D02*
X164063095Y-131976438D01*
X164063095Y-131976438D02*
X164110714Y-132024057D01*
X164110714Y-132024057D02*
X164158333Y-132119295D01*
X164158333Y-132119295D02*
X164158333Y-132262152D01*
X164158333Y-132262152D02*
X164110714Y-132357390D01*
X164110714Y-132357390D02*
X164063095Y-132405009D01*
X164063095Y-132405009D02*
X163967857Y-132452628D01*
X163967857Y-132452628D02*
X163586905Y-132452628D01*
X165110714Y-132928819D02*
X164539286Y-132928819D01*
X164825000Y-132928819D02*
X164825000Y-131928819D01*
X164825000Y-131928819D02*
X164729762Y-132071676D01*
X164729762Y-132071676D02*
X164634524Y-132166914D01*
X164634524Y-132166914D02*
X164539286Y-132214533D01*
X105938095Y-101154819D02*
X105938095Y-101964342D01*
X105938095Y-101964342D02*
X105985714Y-102059580D01*
X105985714Y-102059580D02*
X106033333Y-102107200D01*
X106033333Y-102107200D02*
X106128571Y-102154819D01*
X106128571Y-102154819D02*
X106319047Y-102154819D01*
X106319047Y-102154819D02*
X106414285Y-102107200D01*
X106414285Y-102107200D02*
X106461904Y-102059580D01*
X106461904Y-102059580D02*
X106509523Y-101964342D01*
X106509523Y-101964342D02*
X106509523Y-101154819D01*
X107509523Y-102154819D02*
X106938095Y-102154819D01*
X107223809Y-102154819D02*
X107223809Y-101154819D01*
X107223809Y-101154819D02*
X107128571Y-101297676D01*
X107128571Y-101297676D02*
X107033333Y-101392914D01*
X107033333Y-101392914D02*
X106938095Y-101440533D01*
X109933333Y-84859580D02*
X109885714Y-84907200D01*
X109885714Y-84907200D02*
X109742857Y-84954819D01*
X109742857Y-84954819D02*
X109647619Y-84954819D01*
X109647619Y-84954819D02*
X109504762Y-84907200D01*
X109504762Y-84907200D02*
X109409524Y-84811961D01*
X109409524Y-84811961D02*
X109361905Y-84716723D01*
X109361905Y-84716723D02*
X109314286Y-84526247D01*
X109314286Y-84526247D02*
X109314286Y-84383390D01*
X109314286Y-84383390D02*
X109361905Y-84192914D01*
X109361905Y-84192914D02*
X109409524Y-84097676D01*
X109409524Y-84097676D02*
X109504762Y-84002438D01*
X109504762Y-84002438D02*
X109647619Y-83954819D01*
X109647619Y-83954819D02*
X109742857Y-83954819D01*
X109742857Y-83954819D02*
X109885714Y-84002438D01*
X109885714Y-84002438D02*
X109933333Y-84050057D01*
X110314286Y-84050057D02*
X110361905Y-84002438D01*
X110361905Y-84002438D02*
X110457143Y-83954819D01*
X110457143Y-83954819D02*
X110695238Y-83954819D01*
X110695238Y-83954819D02*
X110790476Y-84002438D01*
X110790476Y-84002438D02*
X110838095Y-84050057D01*
X110838095Y-84050057D02*
X110885714Y-84145295D01*
X110885714Y-84145295D02*
X110885714Y-84240533D01*
X110885714Y-84240533D02*
X110838095Y-84383390D01*
X110838095Y-84383390D02*
X110266667Y-84954819D01*
X110266667Y-84954819D02*
X110885714Y-84954819D01*
X105316666Y-96504819D02*
X105316666Y-97219104D01*
X105316666Y-97219104D02*
X105269047Y-97361961D01*
X105269047Y-97361961D02*
X105173809Y-97457200D01*
X105173809Y-97457200D02*
X105030952Y-97504819D01*
X105030952Y-97504819D02*
X104935714Y-97504819D01*
X106221428Y-96838152D02*
X106221428Y-97504819D01*
X105983333Y-96457200D02*
X105745238Y-97171485D01*
X105745238Y-97171485D02*
X106364285Y-97171485D01*
D12*
X115567252Y-116478000D02*
X115044748Y-116478000D01*
X115567252Y-115008000D02*
X115044748Y-115008000D01*
X148122500Y-86587742D02*
X148122500Y-87062258D01*
X147077500Y-86587742D02*
X147077500Y-87062258D01*
X194670000Y-83270000D02*
X194670000Y-129050000D01*
X194670000Y-83270000D02*
X197330000Y-83270000D01*
X194670000Y-129050000D02*
X197330000Y-129050000D01*
X196000000Y-80670000D02*
X197330000Y-80670000D01*
X197330000Y-80670000D02*
X197330000Y-82000000D01*
X197330000Y-83270000D02*
X197330000Y-129050000D01*
X162870000Y-83270000D02*
X162870000Y-129050000D01*
X162870000Y-83270000D02*
X165530000Y-83270000D01*
X162870000Y-129050000D02*
X165530000Y-129050000D01*
X164200000Y-80670000D02*
X165530000Y-80670000D01*
X165530000Y-80670000D02*
X165530000Y-82000000D01*
X165530000Y-83270000D02*
X165530000Y-129050000D01*
X115572252Y-112668000D02*
X115049748Y-112668000D01*
X115572252Y-111198000D02*
X115049748Y-111198000D01*
X150380000Y-76970000D02*
X151710000Y-76970000D01*
X150380000Y-78300000D02*
X150380000Y-76970000D01*
X150380000Y-79570000D02*
X150380000Y-127890000D01*
X150380000Y-79570000D02*
X152980000Y-79570000D01*
X150380000Y-127890000D02*
X155580000Y-127890000D01*
X152980000Y-76970000D02*
X155580000Y-76970000D01*
X152980000Y-79570000D02*
X152980000Y-76970000D01*
X155580000Y-76970000D02*
X155580000Y-127890000D01*
X113596252Y-81045000D02*
X113073748Y-81045000D01*
X113596252Y-79575000D02*
X113073748Y-79575000D01*
X164087742Y-133381500D02*
X164562258Y-133381500D01*
X164087742Y-134426500D02*
X164562258Y-134426500D01*
X116571000Y-107737000D02*
X110561000Y-107737000D01*
X114321000Y-100917000D02*
X110561000Y-100917000D01*
X110561000Y-107737000D02*
X110561000Y-106477000D01*
X110561000Y-100917000D02*
X110561000Y-102177000D01*
X113596252Y-84855000D02*
X113073748Y-84855000D01*
X113596252Y-83385000D02*
X113073748Y-83385000D01*
X100300000Y-86700000D02*
X115000000Y-86700000D01*
X100300000Y-95900000D02*
X100300000Y-86700000D01*
X109100000Y-95900000D02*
X100300000Y-95900000D01*
X114150000Y-86500000D02*
X115200000Y-86500000D01*
X115000000Y-86700000D02*
X115000000Y-89300000D01*
X115000000Y-93200000D02*
X115000000Y-95900000D01*
X115000000Y-95900000D02*
X113100000Y-95900000D01*
X115200000Y-87550000D02*
X115200000Y-86500000D01*
M02*
