G04 #@! TF.GenerationSoftware,KiCad,Pcbnew,7.0.8*
G04 #@! TF.CreationDate,2024-10-25T10:17:10+09:00*
G04 #@! TF.ProjectId,Juice connector board,4a756963-6520-4636-9f6e-6e6563746f72,rev?*
G04 #@! TF.SameCoordinates,Original*
G04 #@! TF.FileFunction,Copper,L2,Bot*
G04 #@! TF.FilePolarity,Positive*
%FSLAX46Y46*%
G04 Gerber Fmt 4.6, Leading zero omitted, Abs format (unit mm)*
G04 Created by KiCad (PCBNEW 7.0.8) date 2024-10-25 10:17:10*
%MOMM*%
%LPD*%
G01*
G04 APERTURE LIST*
G04 Aperture macros list*
%AMRoundRect*
0 Rectangle with rounded corners*
0 $1 Rounding radius*
0 $2 $3 $4 $5 $6 $7 $8 $9 X,Y pos of 4 corners*
0 Add a 4 corners polygon primitive as box body*
4,1,4,$2,$3,$4,$5,$6,$7,$8,$9,$2,$3,0*
0 Add four circle primitives for the rounded corners*
1,1,$1+$1,$2,$3*
1,1,$1+$1,$4,$5*
1,1,$1+$1,$6,$7*
1,1,$1+$1,$8,$9*
0 Add four rect primitives between the rounded corners*
20,1,$1+$1,$2,$3,$4,$5,0*
20,1,$1+$1,$4,$5,$6,$7,0*
20,1,$1+$1,$6,$7,$8,$9,0*
20,1,$1+$1,$8,$9,$2,$3,0*%
G04 Aperture macros list end*
G04 #@! TA.AperFunction,ComponentPad*
%ADD10R,1.700000X1.700000*%
G04 #@! TD*
G04 #@! TA.AperFunction,ComponentPad*
%ADD11O,1.700000X1.700000*%
G04 #@! TD*
G04 #@! TA.AperFunction,ComponentPad*
%ADD12R,3.500000X3.500000*%
G04 #@! TD*
G04 #@! TA.AperFunction,ComponentPad*
%ADD13RoundRect,0.750000X-0.750000X-1.000000X0.750000X-1.000000X0.750000X1.000000X-0.750000X1.000000X0*%
G04 #@! TD*
G04 #@! TA.AperFunction,ComponentPad*
%ADD14RoundRect,0.875000X-0.875000X-0.875000X0.875000X-0.875000X0.875000X0.875000X-0.875000X0.875000X0*%
G04 #@! TD*
G04 #@! TA.AperFunction,ViaPad*
%ADD15C,0.900000*%
G04 #@! TD*
G04 #@! TA.AperFunction,ViaPad*
%ADD16C,0.605000*%
G04 #@! TD*
G04 #@! TA.AperFunction,Conductor*
%ADD17C,0.200000*%
G04 #@! TD*
G04 APERTURE END LIST*
D10*
X196000000Y-82000000D03*
D11*
X196000000Y-84540000D03*
X196000000Y-87080000D03*
X196000000Y-89620000D03*
X196000000Y-92160000D03*
X196000000Y-94700000D03*
X196000000Y-97240000D03*
X196000000Y-99780000D03*
X196000000Y-102320000D03*
X196000000Y-104860000D03*
X196000000Y-107400000D03*
X196000000Y-109940000D03*
X196000000Y-112480000D03*
X196000000Y-115020000D03*
X196000000Y-117560000D03*
X196000000Y-120100000D03*
X196000000Y-122640000D03*
X196000000Y-125180000D03*
X196000000Y-127720000D03*
D10*
X164200000Y-82000000D03*
D11*
X164200000Y-84540000D03*
X164200000Y-87080000D03*
X164200000Y-89620000D03*
X164200000Y-92160000D03*
X164200000Y-94700000D03*
X164200000Y-97240000D03*
X164200000Y-99780000D03*
X164200000Y-102320000D03*
X164200000Y-104860000D03*
X164200000Y-107400000D03*
X164200000Y-109940000D03*
X164200000Y-112480000D03*
X164200000Y-115020000D03*
X164200000Y-117560000D03*
X164200000Y-120100000D03*
X164200000Y-122640000D03*
X164200000Y-125180000D03*
X164200000Y-127720000D03*
D10*
X151710000Y-78300000D03*
D11*
X154250000Y-78300000D03*
X151710000Y-80840000D03*
X154250000Y-80840000D03*
X151710000Y-83380000D03*
X154250000Y-83380000D03*
X151710000Y-85920000D03*
X154250000Y-85920000D03*
X151710000Y-88460000D03*
X154250000Y-88460000D03*
X151710000Y-91000000D03*
X154250000Y-91000000D03*
X151710000Y-93540000D03*
X154250000Y-93540000D03*
X151710000Y-96080000D03*
X154250000Y-96080000D03*
X151710000Y-98620000D03*
X154250000Y-98620000D03*
X151710000Y-101160000D03*
X154250000Y-101160000D03*
X151710000Y-103700000D03*
X154250000Y-103700000D03*
X151710000Y-106240000D03*
X154250000Y-106240000D03*
X151710000Y-108780000D03*
X154250000Y-108780000D03*
X151710000Y-111320000D03*
X154250000Y-111320000D03*
X151710000Y-113860000D03*
X154250000Y-113860000D03*
X151710000Y-116400000D03*
X154250000Y-116400000D03*
X151710000Y-118940000D03*
X154250000Y-118940000D03*
X151710000Y-121480000D03*
X154250000Y-121480000D03*
X151710000Y-124020000D03*
X154250000Y-124020000D03*
X151710000Y-126560000D03*
X154250000Y-126560000D03*
D12*
X114100000Y-91300000D03*
D13*
X108100000Y-91300000D03*
D14*
X111100000Y-96000000D03*
D15*
X149000000Y-126000000D03*
X157500000Y-83000000D03*
X157000000Y-118500000D03*
X157000000Y-114500000D03*
X115621000Y-108879000D03*
X111000000Y-113500000D03*
X149000000Y-108500000D03*
X149500000Y-88000000D03*
X157000000Y-93000000D03*
X108000000Y-82500000D03*
D16*
X174000000Y-121000000D03*
X168707000Y-124506000D03*
X171200000Y-90400000D03*
X161400000Y-99300000D03*
X172800000Y-115600000D03*
X171000000Y-110800000D03*
X171800000Y-112800000D03*
X157912000Y-108504000D03*
X157912000Y-103424000D03*
X156896000Y-94661000D03*
X156896000Y-112568000D03*
X158928000Y-93264000D03*
X158928000Y-116124000D03*
X175800000Y-122800000D03*
X159944000Y-90228000D03*
X159944000Y-120188000D03*
X161468000Y-120696000D03*
X161468000Y-100884000D03*
X151000000Y-136200000D03*
X147600000Y-89400000D03*
D17*
X164200000Y-120100000D02*
X173100000Y-120100000D01*
X173100000Y-120100000D02*
X174000000Y-121000000D01*
X168707000Y-124506000D02*
X168033000Y-125180000D01*
X168033000Y-125180000D02*
X164200000Y-125180000D01*
X153050000Y-92200000D02*
X156400000Y-92200000D01*
X151710000Y-93540000D02*
X153050000Y-92200000D01*
X160300000Y-88300000D02*
X169100000Y-88300000D01*
X169100000Y-88300000D02*
X171200000Y-90400000D01*
X156400000Y-92200000D02*
X160300000Y-88300000D01*
X168600000Y-85800000D02*
X161200000Y-85800000D01*
X149000000Y-90600000D02*
X149000000Y-94600000D01*
X196000000Y-109940000D02*
X174940000Y-109940000D01*
X172400000Y-89600000D02*
X168600000Y-85800000D01*
X174940000Y-109940000D02*
X172400000Y-107400000D01*
X149000000Y-94600000D02*
X150480000Y-96080000D01*
X150480000Y-96080000D02*
X151710000Y-96080000D01*
X157200000Y-89800000D02*
X149800000Y-89800000D01*
X172400000Y-107400000D02*
X172400000Y-89600000D01*
X149800000Y-89800000D02*
X149000000Y-90600000D01*
X161200000Y-85800000D02*
X157200000Y-89800000D01*
X161400000Y-99300000D02*
X162200000Y-98500000D01*
X167100000Y-98900000D02*
X167100000Y-108000000D01*
X162200000Y-98500000D02*
X166700000Y-98500000D01*
X166700000Y-98500000D02*
X167100000Y-98900000D01*
X172300000Y-108700000D02*
X174800000Y-111200000D01*
X174800000Y-111200000D02*
X196800000Y-111200000D01*
X167100000Y-108000000D02*
X167800000Y-108700000D01*
X167800000Y-108700000D02*
X172300000Y-108700000D01*
X197400000Y-111800000D02*
X197400000Y-118700000D01*
X196800000Y-111200000D02*
X197400000Y-111800000D01*
X197400000Y-118700000D02*
X196000000Y-120100000D01*
X172220000Y-115020000D02*
X172800000Y-115600000D01*
X164200000Y-115020000D02*
X172220000Y-115020000D01*
X164200000Y-109940000D02*
X170140000Y-109940000D01*
X170140000Y-109940000D02*
X171000000Y-110800000D01*
X171480000Y-112480000D02*
X171800000Y-112800000D01*
X164200000Y-112480000D02*
X171480000Y-112480000D01*
X157912000Y-108504000D02*
X157912000Y-103424000D01*
X156896000Y-94661000D02*
X156896000Y-112568000D01*
X158928000Y-93264000D02*
X158928000Y-116124000D01*
X157600000Y-120200000D02*
X158400000Y-121000000D01*
X152970000Y-120200000D02*
X157600000Y-120200000D01*
X159448900Y-123951100D02*
X167248900Y-123951100D01*
X158400000Y-123000000D02*
X159400000Y-124000000D01*
X168400000Y-122800000D02*
X175800000Y-122800000D01*
X159400000Y-124000000D02*
X159448900Y-123951100D01*
X151710000Y-118940000D02*
X152970000Y-120200000D01*
X158400000Y-121000000D02*
X158400000Y-123000000D01*
X167248900Y-123951100D02*
X168400000Y-122800000D01*
X159944000Y-120188000D02*
X159944000Y-90228000D01*
X161468000Y-120696000D02*
X161468000Y-100884000D01*
X164120000Y-99700000D02*
X164200000Y-99780000D01*
X180720000Y-112480000D02*
X179800000Y-113400000D01*
X196000000Y-112480000D02*
X180720000Y-112480000D01*
X158000000Y-125200000D02*
X159400000Y-126600000D01*
X179800000Y-113400000D02*
X179800000Y-126000000D01*
X179800000Y-126000000D02*
X179200000Y-126600000D01*
X152890000Y-125200000D02*
X158000000Y-125200000D01*
X159400000Y-126600000D02*
X179200000Y-126600000D01*
X151710000Y-124020000D02*
X152890000Y-125200000D01*
X147600000Y-135000000D02*
X147600000Y-89400000D01*
X148800000Y-136200000D02*
X147600000Y-135000000D01*
X151000000Y-136200000D02*
X148800000Y-136200000D01*
G04 #@! TA.AperFunction,Conductor*
G36*
X163167342Y-88770502D02*
G01*
X163213835Y-88824158D01*
X163223939Y-88894432D01*
X163199771Y-88952432D01*
X163174941Y-88985310D01*
X163174938Y-88985315D01*
X163075774Y-89184462D01*
X163075768Y-89184479D01*
X163014885Y-89398460D01*
X162994357Y-89620000D01*
X163014885Y-89841539D01*
X163075768Y-90055520D01*
X163075774Y-90055537D01*
X163174938Y-90254684D01*
X163174942Y-90254689D01*
X163309017Y-90432235D01*
X163473438Y-90582124D01*
X163473439Y-90582125D01*
X163662587Y-90699240D01*
X163662590Y-90699241D01*
X163662599Y-90699247D01*
X163745678Y-90731432D01*
X163851708Y-90772509D01*
X163908003Y-90815768D01*
X163931973Y-90882596D01*
X163916009Y-90951774D01*
X163865178Y-91001340D01*
X163851708Y-91007491D01*
X163662603Y-91080751D01*
X163662587Y-91080759D01*
X163473439Y-91197874D01*
X163473438Y-91197875D01*
X163309017Y-91347764D01*
X163174942Y-91525310D01*
X163174938Y-91525315D01*
X163075774Y-91724462D01*
X163075768Y-91724479D01*
X163014885Y-91938460D01*
X162994357Y-92160000D01*
X163014885Y-92381539D01*
X163075768Y-92595520D01*
X163075774Y-92595537D01*
X163174938Y-92794684D01*
X163174942Y-92794689D01*
X163309017Y-92972235D01*
X163473438Y-93122124D01*
X163473439Y-93122125D01*
X163662587Y-93239240D01*
X163662590Y-93239241D01*
X163662599Y-93239247D01*
X163726486Y-93263997D01*
X163851708Y-93312509D01*
X163908003Y-93355768D01*
X163931973Y-93422596D01*
X163916009Y-93491774D01*
X163865178Y-93541340D01*
X163851708Y-93547491D01*
X163662603Y-93620751D01*
X163662587Y-93620759D01*
X163473439Y-93737874D01*
X163473438Y-93737875D01*
X163309017Y-93887764D01*
X163174942Y-94065310D01*
X163174938Y-94065315D01*
X163075774Y-94264462D01*
X163075768Y-94264479D01*
X163014885Y-94478460D01*
X162994357Y-94700000D01*
X163014885Y-94921539D01*
X163075768Y-95135520D01*
X163075774Y-95135537D01*
X163174938Y-95334684D01*
X163174942Y-95334689D01*
X163309017Y-95512235D01*
X163473438Y-95662124D01*
X163473439Y-95662125D01*
X163662587Y-95779240D01*
X163662590Y-95779241D01*
X163662599Y-95779247D01*
X163745678Y-95811432D01*
X163851708Y-95852509D01*
X163908003Y-95895768D01*
X163931973Y-95962596D01*
X163916009Y-96031774D01*
X163865178Y-96081340D01*
X163851708Y-96087491D01*
X163662603Y-96160751D01*
X163662587Y-96160759D01*
X163473439Y-96277874D01*
X163473438Y-96277875D01*
X163309017Y-96427764D01*
X163174942Y-96605310D01*
X163174938Y-96605315D01*
X163075774Y-96804462D01*
X163075768Y-96804479D01*
X163014885Y-97018460D01*
X162994357Y-97240000D01*
X163014885Y-97461539D01*
X163075768Y-97675520D01*
X163075771Y-97675528D01*
X163171281Y-97867337D01*
X163183740Y-97937232D01*
X163156433Y-98002767D01*
X163098030Y-98043135D01*
X163058490Y-98049500D01*
X162228844Y-98049500D01*
X162221787Y-98049104D01*
X162182965Y-98044730D01*
X162182964Y-98044730D01*
X162182962Y-98044730D01*
X162124508Y-98055788D01*
X162065715Y-98064651D01*
X162057538Y-98067173D01*
X162049526Y-98069976D01*
X161996915Y-98097783D01*
X161943361Y-98123573D01*
X161936293Y-98128391D01*
X161929462Y-98133433D01*
X161887400Y-98175495D01*
X161843808Y-98215941D01*
X161837923Y-98223322D01*
X161837247Y-98222783D01*
X161827784Y-98235110D01*
X161452802Y-98610095D01*
X161390490Y-98644120D01*
X161363706Y-98647000D01*
X161320709Y-98647000D01*
X161166744Y-98684949D01*
X161166741Y-98684950D01*
X161026329Y-98758644D01*
X161026327Y-98758646D01*
X160907631Y-98863802D01*
X160817553Y-98994303D01*
X160817550Y-98994309D01*
X160761316Y-99142581D01*
X160742204Y-99299997D01*
X160742204Y-99300002D01*
X160761316Y-99457418D01*
X160817550Y-99605690D01*
X160817553Y-99605696D01*
X160907631Y-99736197D01*
X160907632Y-99736198D01*
X160907633Y-99736199D01*
X161026329Y-99841355D01*
X161166742Y-99915050D01*
X161320711Y-99953000D01*
X161320712Y-99953000D01*
X161479288Y-99953000D01*
X161479289Y-99953000D01*
X161633258Y-99915050D01*
X161773671Y-99841355D01*
X161892367Y-99736199D01*
X161982449Y-99605693D01*
X162038682Y-99457421D01*
X162038682Y-99457420D01*
X162038683Y-99457418D01*
X162055415Y-99319609D01*
X162083481Y-99254396D01*
X162091389Y-99245712D01*
X162349699Y-98987404D01*
X162412011Y-98953379D01*
X162438794Y-98950500D01*
X163069350Y-98950500D01*
X163137471Y-98970502D01*
X163183964Y-99024158D01*
X163194068Y-99094432D01*
X163177481Y-99140067D01*
X163177538Y-99140096D01*
X163177292Y-99140589D01*
X163176479Y-99142827D01*
X163174941Y-99145309D01*
X163075774Y-99344462D01*
X163075768Y-99344479D01*
X163014885Y-99558460D01*
X162994357Y-99780000D01*
X163014885Y-100001539D01*
X163075768Y-100215520D01*
X163075774Y-100215537D01*
X163174938Y-100414684D01*
X163174942Y-100414689D01*
X163309017Y-100592235D01*
X163473438Y-100742124D01*
X163473439Y-100742125D01*
X163662587Y-100859240D01*
X163662590Y-100859241D01*
X163662599Y-100859247D01*
X163726486Y-100883997D01*
X163851708Y-100932509D01*
X163908003Y-100975768D01*
X163931973Y-101042596D01*
X163916009Y-101111774D01*
X163865178Y-101161340D01*
X163851708Y-101167491D01*
X163662603Y-101240751D01*
X163662587Y-101240759D01*
X163473439Y-101357874D01*
X163473438Y-101357875D01*
X163309017Y-101507764D01*
X163174942Y-101685310D01*
X163174938Y-101685315D01*
X163075774Y-101884462D01*
X163075768Y-101884479D01*
X163014885Y-102098460D01*
X162994357Y-102320000D01*
X163014885Y-102541539D01*
X163075768Y-102755520D01*
X163075774Y-102755537D01*
X163174938Y-102954684D01*
X163174942Y-102954689D01*
X163309017Y-103132235D01*
X163473438Y-103282124D01*
X163473439Y-103282125D01*
X163662587Y-103399240D01*
X163662590Y-103399241D01*
X163662599Y-103399247D01*
X163745678Y-103431432D01*
X163851708Y-103472509D01*
X163908003Y-103515768D01*
X163931973Y-103582596D01*
X163916009Y-103651774D01*
X163865178Y-103701340D01*
X163851708Y-103707491D01*
X163662603Y-103780751D01*
X163662587Y-103780759D01*
X163473439Y-103897874D01*
X163473438Y-103897875D01*
X163309017Y-104047764D01*
X163174942Y-104225310D01*
X163174938Y-104225315D01*
X163075774Y-104424462D01*
X163075768Y-104424479D01*
X163014885Y-104638460D01*
X162994357Y-104860000D01*
X163014885Y-105081539D01*
X163075768Y-105295520D01*
X163075774Y-105295537D01*
X163174938Y-105494684D01*
X163174942Y-105494689D01*
X163309017Y-105672235D01*
X163473438Y-105822124D01*
X163473439Y-105822125D01*
X163662587Y-105939240D01*
X163662590Y-105939241D01*
X163662599Y-105939247D01*
X163745678Y-105971432D01*
X163851708Y-106012509D01*
X163908003Y-106055768D01*
X163931973Y-106122596D01*
X163916009Y-106191774D01*
X163865178Y-106241340D01*
X163851708Y-106247491D01*
X163662603Y-106320751D01*
X163662587Y-106320759D01*
X163473439Y-106437874D01*
X163473438Y-106437875D01*
X163309017Y-106587764D01*
X163174942Y-106765310D01*
X163174938Y-106765315D01*
X163075774Y-106964462D01*
X163075768Y-106964479D01*
X163014885Y-107178460D01*
X162994357Y-107400000D01*
X163014885Y-107621539D01*
X163075768Y-107835520D01*
X163075774Y-107835537D01*
X163174938Y-108034684D01*
X163174942Y-108034689D01*
X163309017Y-108212235D01*
X163473438Y-108362124D01*
X163473439Y-108362125D01*
X163662587Y-108479240D01*
X163662590Y-108479241D01*
X163662599Y-108479247D01*
X163751568Y-108513714D01*
X163851708Y-108552509D01*
X163908003Y-108595768D01*
X163931973Y-108662596D01*
X163916009Y-108731774D01*
X163865178Y-108781340D01*
X163851708Y-108787491D01*
X163662603Y-108860751D01*
X163662587Y-108860759D01*
X163473439Y-108977874D01*
X163473438Y-108977875D01*
X163309017Y-109127764D01*
X163174942Y-109305310D01*
X163174938Y-109305315D01*
X163075774Y-109504462D01*
X163075768Y-109504479D01*
X163014885Y-109718460D01*
X162994357Y-109940000D01*
X163014885Y-110161539D01*
X163075768Y-110375520D01*
X163075774Y-110375537D01*
X163174938Y-110574684D01*
X163174942Y-110574689D01*
X163309017Y-110752235D01*
X163473438Y-110902124D01*
X163473439Y-110902125D01*
X163662587Y-111019240D01*
X163662590Y-111019241D01*
X163662599Y-111019247D01*
X163745678Y-111051432D01*
X163851708Y-111092509D01*
X163908003Y-111135768D01*
X163931973Y-111202596D01*
X163916009Y-111271774D01*
X163865178Y-111321340D01*
X163851708Y-111327491D01*
X163662603Y-111400751D01*
X163662587Y-111400759D01*
X163473439Y-111517874D01*
X163473438Y-111517875D01*
X163309017Y-111667764D01*
X163174942Y-111845310D01*
X163174938Y-111845315D01*
X163075774Y-112044462D01*
X163075768Y-112044479D01*
X163014885Y-112258460D01*
X162994357Y-112480000D01*
X163014885Y-112701539D01*
X163075768Y-112915520D01*
X163075774Y-112915537D01*
X163174938Y-113114684D01*
X163174942Y-113114689D01*
X163309017Y-113292235D01*
X163473438Y-113442124D01*
X163473439Y-113442125D01*
X163662587Y-113559240D01*
X163662590Y-113559241D01*
X163662599Y-113559247D01*
X163751568Y-113593714D01*
X163851708Y-113632509D01*
X163908003Y-113675768D01*
X163931973Y-113742596D01*
X163916009Y-113811774D01*
X163865178Y-113861340D01*
X163851708Y-113867491D01*
X163662603Y-113940751D01*
X163662587Y-113940759D01*
X163473439Y-114057874D01*
X163473438Y-114057875D01*
X163309017Y-114207764D01*
X163174942Y-114385310D01*
X163174938Y-114385315D01*
X163075774Y-114584462D01*
X163075768Y-114584479D01*
X163014885Y-114798460D01*
X162994357Y-115020000D01*
X163014885Y-115241539D01*
X163075768Y-115455520D01*
X163075774Y-115455537D01*
X163174938Y-115654684D01*
X163174942Y-115654689D01*
X163309017Y-115832235D01*
X163473438Y-115982124D01*
X163473439Y-115982125D01*
X163662587Y-116099240D01*
X163662590Y-116099241D01*
X163662599Y-116099247D01*
X163726486Y-116123997D01*
X163851708Y-116172509D01*
X163908003Y-116215768D01*
X163931973Y-116282596D01*
X163916009Y-116351774D01*
X163865178Y-116401340D01*
X163851708Y-116407491D01*
X163662603Y-116480751D01*
X163662587Y-116480759D01*
X163473439Y-116597874D01*
X163473438Y-116597875D01*
X163309017Y-116747764D01*
X163174942Y-116925310D01*
X163174938Y-116925315D01*
X163075774Y-117124462D01*
X163075768Y-117124479D01*
X163014885Y-117338460D01*
X162994357Y-117560000D01*
X163014885Y-117781539D01*
X163075768Y-117995520D01*
X163075774Y-117995537D01*
X163174938Y-118194684D01*
X163174942Y-118194689D01*
X163309017Y-118372235D01*
X163473438Y-118522124D01*
X163473439Y-118522125D01*
X163662587Y-118639240D01*
X163662590Y-118639241D01*
X163662599Y-118639247D01*
X163751568Y-118673714D01*
X163851708Y-118712509D01*
X163908003Y-118755768D01*
X163931973Y-118822596D01*
X163916009Y-118891774D01*
X163865178Y-118941340D01*
X163851708Y-118947491D01*
X163662603Y-119020751D01*
X163662587Y-119020759D01*
X163473439Y-119137874D01*
X163473438Y-119137875D01*
X163309017Y-119287764D01*
X163174942Y-119465310D01*
X163174938Y-119465315D01*
X163075774Y-119664462D01*
X163075768Y-119664479D01*
X163014885Y-119878460D01*
X162994357Y-120100000D01*
X163014885Y-120321539D01*
X163075768Y-120535520D01*
X163075774Y-120535537D01*
X163174938Y-120734684D01*
X163174942Y-120734689D01*
X163309017Y-120912235D01*
X163473438Y-121062124D01*
X163473439Y-121062125D01*
X163662587Y-121179240D01*
X163662590Y-121179241D01*
X163662599Y-121179247D01*
X163751568Y-121213714D01*
X163851708Y-121252509D01*
X163908003Y-121295768D01*
X163931973Y-121362596D01*
X163916009Y-121431774D01*
X163865178Y-121481340D01*
X163851708Y-121487491D01*
X163662603Y-121560751D01*
X163662587Y-121560759D01*
X163473439Y-121677874D01*
X163473438Y-121677875D01*
X163309017Y-121827764D01*
X163174942Y-122005310D01*
X163174938Y-122005315D01*
X163075774Y-122204462D01*
X163075768Y-122204479D01*
X163014885Y-122418460D01*
X162994357Y-122640000D01*
X163014885Y-122861539D01*
X163075768Y-123075520D01*
X163075774Y-123075537D01*
X163174938Y-123274684D01*
X163174941Y-123274689D01*
X163193050Y-123298668D01*
X163218140Y-123365083D01*
X163203340Y-123434520D01*
X163153350Y-123484933D01*
X163092500Y-123500600D01*
X159589893Y-123500600D01*
X159521772Y-123480598D01*
X159500798Y-123463695D01*
X158887405Y-122850302D01*
X158853379Y-122787990D01*
X158850500Y-122761207D01*
X158850500Y-121028842D01*
X158850896Y-121021782D01*
X158851141Y-121019609D01*
X158855270Y-120982965D01*
X158848220Y-120945701D01*
X158844211Y-120924508D01*
X158835348Y-120865713D01*
X158832829Y-120857547D01*
X158830024Y-120849532D01*
X158830024Y-120849528D01*
X158802216Y-120796915D01*
X158776425Y-120743358D01*
X158776423Y-120743356D01*
X158771614Y-120736302D01*
X158766567Y-120729465D01*
X158766566Y-120729462D01*
X158724504Y-120687400D01*
X158684055Y-120643806D01*
X158684051Y-120643803D01*
X158676672Y-120637918D01*
X158677211Y-120637241D01*
X158664885Y-120627781D01*
X157938947Y-119901844D01*
X157934235Y-119896571D01*
X157909880Y-119866031D01*
X157909881Y-119866031D01*
X157860728Y-119832519D01*
X157812879Y-119797204D01*
X157805330Y-119793214D01*
X157797674Y-119789528D01*
X157740822Y-119771992D01*
X157684696Y-119752353D01*
X157676320Y-119750767D01*
X157667905Y-119749500D01*
X157667902Y-119749500D01*
X157608426Y-119749500D01*
X157548990Y-119747276D01*
X157548989Y-119747276D01*
X157539610Y-119748333D01*
X157539512Y-119747471D01*
X157524103Y-119749500D01*
X155570677Y-119749500D01*
X155502556Y-119729498D01*
X155456063Y-119675842D01*
X155445959Y-119605568D01*
X155455290Y-119572886D01*
X155538820Y-119382456D01*
X155538823Y-119382449D01*
X155586544Y-119194000D01*
X154681116Y-119194000D01*
X154709493Y-119149844D01*
X154750000Y-119011889D01*
X154750000Y-118868111D01*
X154709493Y-118730156D01*
X154681116Y-118686000D01*
X155586544Y-118686000D01*
X155586544Y-118685999D01*
X155538823Y-118497550D01*
X155538820Y-118497543D01*
X155448419Y-118291451D01*
X155325325Y-118103041D01*
X155172902Y-117937465D01*
X154995303Y-117799233D01*
X154799814Y-117693440D01*
X154749424Y-117643426D01*
X154734072Y-117574109D01*
X154758633Y-117507496D01*
X154793450Y-117475501D01*
X154976562Y-117362124D01*
X155140981Y-117212236D01*
X155275058Y-117034689D01*
X155275059Y-117034685D01*
X155275061Y-117034684D01*
X155374225Y-116835537D01*
X155374226Y-116835533D01*
X155374229Y-116835528D01*
X155435115Y-116621536D01*
X155455643Y-116400000D01*
X155435115Y-116178464D01*
X155382482Y-115993480D01*
X155374231Y-115964479D01*
X155374225Y-115964462D01*
X155275061Y-115765315D01*
X155275057Y-115765310D01*
X155140982Y-115587764D01*
X154976561Y-115437875D01*
X154976560Y-115437874D01*
X154793454Y-115324500D01*
X154746066Y-115271634D01*
X154734783Y-115201539D01*
X154763187Y-115136472D01*
X154799815Y-115106559D01*
X154995300Y-115000768D01*
X154995301Y-115000767D01*
X155172902Y-114862534D01*
X155325325Y-114696958D01*
X155448419Y-114508548D01*
X155538820Y-114302456D01*
X155538823Y-114302449D01*
X155586544Y-114114000D01*
X154681116Y-114114000D01*
X154709493Y-114069844D01*
X154750000Y-113931889D01*
X154750000Y-113788111D01*
X154709493Y-113650156D01*
X154681116Y-113606000D01*
X155586544Y-113606000D01*
X155586544Y-113605999D01*
X155538823Y-113417550D01*
X155538820Y-113417543D01*
X155448419Y-113211451D01*
X155325325Y-113023041D01*
X155172902Y-112857465D01*
X154995303Y-112719233D01*
X154799814Y-112613440D01*
X154749424Y-112563426D01*
X154734072Y-112494109D01*
X154758633Y-112427496D01*
X154793450Y-112395501D01*
X154976562Y-112282124D01*
X155140981Y-112132236D01*
X155141310Y-112131801D01*
X155203100Y-112049977D01*
X155275058Y-111954689D01*
X155275059Y-111954685D01*
X155275061Y-111954684D01*
X155374225Y-111755537D01*
X155374226Y-111755533D01*
X155374229Y-111755528D01*
X155435115Y-111541536D01*
X155455643Y-111320000D01*
X155435115Y-111098464D01*
X155374229Y-110884472D01*
X155374227Y-110884468D01*
X155374225Y-110884462D01*
X155275061Y-110685315D01*
X155275057Y-110685310D01*
X155140982Y-110507764D01*
X154976561Y-110357875D01*
X154976560Y-110357874D01*
X154787412Y-110240759D01*
X154787405Y-110240755D01*
X154787401Y-110240753D01*
X154660611Y-110191634D01*
X154598291Y-110167491D01*
X154541996Y-110124232D01*
X154518026Y-110057404D01*
X154533990Y-109988226D01*
X154584821Y-109938660D01*
X154598291Y-109932509D01*
X154635720Y-109918008D01*
X154787401Y-109859247D01*
X154976562Y-109742124D01*
X155140981Y-109592236D01*
X155275058Y-109414689D01*
X155275059Y-109414685D01*
X155275061Y-109414684D01*
X155374225Y-109215537D01*
X155374226Y-109215533D01*
X155374229Y-109215528D01*
X155435115Y-109001536D01*
X155455643Y-108780000D01*
X155435115Y-108558464D01*
X155374229Y-108344472D01*
X155374227Y-108344468D01*
X155374225Y-108344462D01*
X155275061Y-108145315D01*
X155275057Y-108145310D01*
X155272875Y-108142421D01*
X155238285Y-108096616D01*
X155140982Y-107967764D01*
X154976561Y-107817875D01*
X154976560Y-107817874D01*
X154787412Y-107700759D01*
X154787405Y-107700755D01*
X154787401Y-107700753D01*
X154787396Y-107700751D01*
X154598291Y-107627491D01*
X154541996Y-107584232D01*
X154518026Y-107517404D01*
X154533990Y-107448226D01*
X154584821Y-107398660D01*
X154598291Y-107392509D01*
X154644263Y-107374699D01*
X154787401Y-107319247D01*
X154976562Y-107202124D01*
X155140981Y-107052236D01*
X155275058Y-106874689D01*
X155275059Y-106874685D01*
X155275061Y-106874684D01*
X155374225Y-106675537D01*
X155374226Y-106675533D01*
X155374229Y-106675528D01*
X155435115Y-106461536D01*
X155455643Y-106240000D01*
X155435115Y-106018464D01*
X155374229Y-105804472D01*
X155374227Y-105804468D01*
X155374225Y-105804462D01*
X155275061Y-105605315D01*
X155275057Y-105605310D01*
X155140982Y-105427764D01*
X154976561Y-105277875D01*
X154976560Y-105277874D01*
X154787412Y-105160759D01*
X154787405Y-105160755D01*
X154787401Y-105160753D01*
X154787396Y-105160751D01*
X154598291Y-105087491D01*
X154541996Y-105044232D01*
X154518026Y-104977404D01*
X154533990Y-104908226D01*
X154584821Y-104858660D01*
X154598291Y-104852509D01*
X154635720Y-104838008D01*
X154787401Y-104779247D01*
X154976562Y-104662124D01*
X155140981Y-104512236D01*
X155275058Y-104334689D01*
X155275059Y-104334685D01*
X155275061Y-104334684D01*
X155374225Y-104135537D01*
X155374226Y-104135533D01*
X155374229Y-104135528D01*
X155435115Y-103921536D01*
X155455643Y-103700000D01*
X155435115Y-103478464D01*
X155374229Y-103264472D01*
X155374227Y-103264468D01*
X155374225Y-103264462D01*
X155275061Y-103065315D01*
X155275057Y-103065310D01*
X155140982Y-102887764D01*
X154976561Y-102737875D01*
X154976560Y-102737874D01*
X154793454Y-102624500D01*
X154746066Y-102571634D01*
X154734783Y-102501539D01*
X154763187Y-102436472D01*
X154799815Y-102406559D01*
X154995300Y-102300768D01*
X154995301Y-102300767D01*
X155172902Y-102162534D01*
X155325325Y-101996958D01*
X155448419Y-101808548D01*
X155538820Y-101602456D01*
X155538823Y-101602449D01*
X155586544Y-101414000D01*
X154681116Y-101414000D01*
X154709493Y-101369844D01*
X154750000Y-101231889D01*
X154750000Y-101088111D01*
X154709493Y-100950156D01*
X154681116Y-100906000D01*
X155586544Y-100906000D01*
X155586544Y-100905999D01*
X155538823Y-100717550D01*
X155538820Y-100717543D01*
X155448419Y-100511451D01*
X155325325Y-100323041D01*
X155172902Y-100157465D01*
X154995303Y-100019233D01*
X154799814Y-99913440D01*
X154749424Y-99863426D01*
X154734072Y-99794109D01*
X154758633Y-99727496D01*
X154793450Y-99695501D01*
X154976562Y-99582124D01*
X155140981Y-99432236D01*
X155275058Y-99254689D01*
X155275059Y-99254685D01*
X155275061Y-99254684D01*
X155374225Y-99055537D01*
X155374226Y-99055533D01*
X155374229Y-99055528D01*
X155435115Y-98841536D01*
X155455643Y-98620000D01*
X155435115Y-98398464D01*
X155374229Y-98184472D01*
X155374227Y-98184468D01*
X155374225Y-98184462D01*
X155275061Y-97985315D01*
X155275057Y-97985310D01*
X155140982Y-97807764D01*
X154976561Y-97657875D01*
X154976560Y-97657874D01*
X154787412Y-97540759D01*
X154787405Y-97540755D01*
X154787401Y-97540753D01*
X154787396Y-97540751D01*
X154598291Y-97467491D01*
X154541996Y-97424232D01*
X154518026Y-97357404D01*
X154533990Y-97288226D01*
X154584821Y-97238660D01*
X154598291Y-97232509D01*
X154635720Y-97218008D01*
X154787401Y-97159247D01*
X154976562Y-97042124D01*
X155140981Y-96892236D01*
X155275058Y-96714689D01*
X155275059Y-96714685D01*
X155275061Y-96714684D01*
X155374225Y-96515537D01*
X155374226Y-96515533D01*
X155374229Y-96515528D01*
X155435115Y-96301536D01*
X155455643Y-96080000D01*
X155435115Y-95858464D01*
X155374229Y-95644472D01*
X155374227Y-95644468D01*
X155374225Y-95644462D01*
X155275061Y-95445315D01*
X155275057Y-95445310D01*
X155140982Y-95267764D01*
X154976561Y-95117875D01*
X154976560Y-95117874D01*
X154793454Y-95004500D01*
X154746066Y-94951634D01*
X154734783Y-94881539D01*
X154763187Y-94816472D01*
X154799815Y-94786559D01*
X154995300Y-94680768D01*
X154995301Y-94680767D01*
X155172902Y-94542534D01*
X155325325Y-94376958D01*
X155448419Y-94188548D01*
X155538820Y-93982456D01*
X155538823Y-93982449D01*
X155586544Y-93794000D01*
X154681116Y-93794000D01*
X154709493Y-93749844D01*
X154750000Y-93611889D01*
X154750000Y-93468111D01*
X154709493Y-93330156D01*
X154681116Y-93286000D01*
X155586544Y-93286000D01*
X155586544Y-93285999D01*
X155538823Y-93097550D01*
X155538820Y-93097543D01*
X155448419Y-92891451D01*
X155418343Y-92845416D01*
X155397830Y-92777448D01*
X155417319Y-92709178D01*
X155470623Y-92662283D01*
X155523826Y-92650500D01*
X156371157Y-92650500D01*
X156378211Y-92650895D01*
X156417035Y-92655270D01*
X156417035Y-92655269D01*
X156417036Y-92655270D01*
X156417036Y-92655269D01*
X156442397Y-92650470D01*
X156475478Y-92644212D01*
X156506636Y-92639515D01*
X156534287Y-92635348D01*
X156534295Y-92635343D01*
X156542472Y-92632821D01*
X156550472Y-92630023D01*
X156603073Y-92602222D01*
X156620484Y-92593836D01*
X156656642Y-92576425D01*
X156656646Y-92576421D01*
X156663685Y-92571622D01*
X156670531Y-92566569D01*
X156670538Y-92566566D01*
X156712600Y-92524503D01*
X156756194Y-92484055D01*
X156756197Y-92484048D01*
X156762081Y-92476672D01*
X156762762Y-92477215D01*
X156772219Y-92464883D01*
X159073218Y-90163884D01*
X159135528Y-90129860D01*
X159206343Y-90134925D01*
X159263179Y-90177472D01*
X159287392Y-90237793D01*
X159305317Y-90385418D01*
X159305317Y-90385420D01*
X159305318Y-90385421D01*
X159333291Y-90459177D01*
X159361550Y-90533690D01*
X159361553Y-90533696D01*
X159451632Y-90664198D01*
X159456685Y-90669901D01*
X159455570Y-90670888D01*
X159488777Y-90723824D01*
X159493500Y-90757997D01*
X159493500Y-92614982D01*
X159473498Y-92683103D01*
X159419842Y-92729596D01*
X159349568Y-92739700D01*
X159309551Y-92724029D01*
X159308419Y-92726187D01*
X159301671Y-92722645D01*
X159161258Y-92648950D01*
X159161255Y-92648949D01*
X159007290Y-92611000D01*
X159007289Y-92611000D01*
X158848711Y-92611000D01*
X158848709Y-92611000D01*
X158694744Y-92648949D01*
X158694741Y-92648950D01*
X158554329Y-92722644D01*
X158554327Y-92722646D01*
X158435631Y-92827802D01*
X158345553Y-92958303D01*
X158345550Y-92958309D01*
X158289316Y-93106581D01*
X158270204Y-93263997D01*
X158270204Y-93264002D01*
X158289316Y-93421418D01*
X158345550Y-93569690D01*
X158345553Y-93569696D01*
X158435632Y-93700198D01*
X158440685Y-93705901D01*
X158439570Y-93706888D01*
X158472777Y-93759824D01*
X158477500Y-93793997D01*
X158477500Y-102774982D01*
X158457498Y-102843103D01*
X158403842Y-102889596D01*
X158333568Y-102899700D01*
X158293551Y-102884029D01*
X158292419Y-102886187D01*
X158285671Y-102882645D01*
X158145258Y-102808950D01*
X158145255Y-102808949D01*
X157991290Y-102771000D01*
X157991289Y-102771000D01*
X157832711Y-102771000D01*
X157832709Y-102771000D01*
X157678744Y-102808949D01*
X157678741Y-102808950D01*
X157636697Y-102831017D01*
X157538329Y-102882645D01*
X157538328Y-102882645D01*
X157531581Y-102886187D01*
X157530069Y-102883307D01*
X157476589Y-102900916D01*
X157407855Y-102883135D01*
X157359646Y-102831017D01*
X157346500Y-102774982D01*
X157346500Y-95190997D01*
X157366502Y-95122876D01*
X157383488Y-95103054D01*
X157383315Y-95102901D01*
X157388362Y-95097202D01*
X157388367Y-95097199D01*
X157478449Y-94966693D01*
X157534682Y-94818421D01*
X157534682Y-94818420D01*
X157534683Y-94818418D01*
X157553796Y-94661002D01*
X157553796Y-94660997D01*
X157534683Y-94503581D01*
X157514476Y-94450301D01*
X157478449Y-94355307D01*
X157388367Y-94224801D01*
X157269671Y-94119645D01*
X157269670Y-94119644D01*
X157129258Y-94045950D01*
X157129255Y-94045949D01*
X156975290Y-94008000D01*
X156975289Y-94008000D01*
X156816711Y-94008000D01*
X156816709Y-94008000D01*
X156662744Y-94045949D01*
X156662741Y-94045950D01*
X156522329Y-94119644D01*
X156522327Y-94119646D01*
X156403631Y-94224802D01*
X156313553Y-94355303D01*
X156313550Y-94355309D01*
X156257316Y-94503581D01*
X156238204Y-94660997D01*
X156238204Y-94661002D01*
X156257316Y-94818418D01*
X156296425Y-94921536D01*
X156311198Y-94960490D01*
X156313550Y-94966690D01*
X156313553Y-94966696D01*
X156403632Y-95097198D01*
X156408685Y-95102901D01*
X156407570Y-95103888D01*
X156440777Y-95156824D01*
X156445500Y-95190997D01*
X156445500Y-112038002D01*
X156425498Y-112106123D01*
X156408511Y-112125946D01*
X156408684Y-112126100D01*
X156403631Y-112131802D01*
X156313553Y-112262303D01*
X156313550Y-112262309D01*
X156257316Y-112410581D01*
X156238204Y-112567997D01*
X156238204Y-112568002D01*
X156257316Y-112725418D01*
X156313550Y-112873690D01*
X156313553Y-112873696D01*
X156403631Y-113004197D01*
X156403632Y-113004198D01*
X156403633Y-113004199D01*
X156522329Y-113109355D01*
X156662742Y-113183050D01*
X156816711Y-113221000D01*
X156816712Y-113221000D01*
X156975288Y-113221000D01*
X156975289Y-113221000D01*
X157129258Y-113183050D01*
X157269671Y-113109355D01*
X157388367Y-113004199D01*
X157478449Y-112873693D01*
X157534682Y-112725421D01*
X157534682Y-112725420D01*
X157534683Y-112725418D01*
X157553796Y-112568002D01*
X157553796Y-112567997D01*
X157534683Y-112410581D01*
X157521103Y-112374775D01*
X157478449Y-112262307D01*
X157398189Y-112146030D01*
X157388368Y-112131802D01*
X157383316Y-112126100D01*
X157384428Y-112125114D01*
X157351218Y-112072160D01*
X157346500Y-112038002D01*
X157346500Y-109153017D01*
X157366502Y-109084896D01*
X157420158Y-109038403D01*
X157490432Y-109028299D01*
X157530436Y-109043994D01*
X157531581Y-109041813D01*
X157538328Y-109045354D01*
X157538329Y-109045355D01*
X157678742Y-109119050D01*
X157832711Y-109157000D01*
X157832712Y-109157000D01*
X157991288Y-109157000D01*
X157991289Y-109157000D01*
X158145258Y-109119050D01*
X158285671Y-109045355D01*
X158285672Y-109045354D01*
X158292419Y-109041813D01*
X158293942Y-109044715D01*
X158347248Y-109027089D01*
X158416005Y-109044781D01*
X158464282Y-109096837D01*
X158477500Y-109153017D01*
X158477500Y-115594002D01*
X158457498Y-115662123D01*
X158440511Y-115681946D01*
X158440684Y-115682100D01*
X158435631Y-115687802D01*
X158345553Y-115818303D01*
X158345550Y-115818309D01*
X158289316Y-115966581D01*
X158270204Y-116123997D01*
X158270204Y-116124002D01*
X158289316Y-116281418D01*
X158345550Y-116429690D01*
X158345553Y-116429696D01*
X158435631Y-116560197D01*
X158435632Y-116560198D01*
X158435633Y-116560199D01*
X158554329Y-116665355D01*
X158694742Y-116739050D01*
X158848711Y-116777000D01*
X158848712Y-116777000D01*
X159007288Y-116777000D01*
X159007289Y-116777000D01*
X159161258Y-116739050D01*
X159301671Y-116665355D01*
X159301672Y-116665354D01*
X159308419Y-116661813D01*
X159309942Y-116664715D01*
X159363248Y-116647089D01*
X159432005Y-116664781D01*
X159480282Y-116716837D01*
X159493500Y-116773017D01*
X159493500Y-119658002D01*
X159473498Y-119726123D01*
X159456511Y-119745946D01*
X159456684Y-119746100D01*
X159451631Y-119751802D01*
X159361553Y-119882303D01*
X159361550Y-119882309D01*
X159305316Y-120030581D01*
X159286204Y-120187997D01*
X159286204Y-120188002D01*
X159305316Y-120345418D01*
X159361550Y-120493690D01*
X159361553Y-120493696D01*
X159451631Y-120624197D01*
X159451632Y-120624198D01*
X159451633Y-120624199D01*
X159570329Y-120729355D01*
X159710742Y-120803050D01*
X159864711Y-120841000D01*
X159864712Y-120841000D01*
X160023288Y-120841000D01*
X160023289Y-120841000D01*
X160177258Y-120803050D01*
X160317671Y-120729355D01*
X160355319Y-120696002D01*
X160810204Y-120696002D01*
X160829316Y-120853418D01*
X160885550Y-121001690D01*
X160885553Y-121001696D01*
X160975631Y-121132197D01*
X160975632Y-121132198D01*
X160975633Y-121132199D01*
X161094329Y-121237355D01*
X161234742Y-121311050D01*
X161388711Y-121349000D01*
X161388712Y-121349000D01*
X161547288Y-121349000D01*
X161547289Y-121349000D01*
X161701258Y-121311050D01*
X161841671Y-121237355D01*
X161960367Y-121132199D01*
X162050449Y-121001693D01*
X162106682Y-120853421D01*
X162106682Y-120853420D01*
X162106683Y-120853418D01*
X162125796Y-120696002D01*
X162125796Y-120695997D01*
X162106683Y-120538581D01*
X162076367Y-120458646D01*
X162050449Y-120390307D01*
X161973964Y-120279500D01*
X161960368Y-120259802D01*
X161955316Y-120254100D01*
X161956428Y-120253114D01*
X161923218Y-120200160D01*
X161918500Y-120166002D01*
X161918500Y-101413997D01*
X161938502Y-101345876D01*
X161955488Y-101326054D01*
X161955315Y-101325901D01*
X161960362Y-101320202D01*
X161960367Y-101320199D01*
X162050449Y-101189693D01*
X162106682Y-101041421D01*
X162106682Y-101041420D01*
X162106683Y-101041418D01*
X162125796Y-100884002D01*
X162125796Y-100883997D01*
X162106683Y-100726581D01*
X162083155Y-100664544D01*
X162050449Y-100578307D01*
X161960367Y-100447801D01*
X161841671Y-100342645D01*
X161841670Y-100342644D01*
X161701258Y-100268950D01*
X161701255Y-100268949D01*
X161547290Y-100231000D01*
X161547289Y-100231000D01*
X161388711Y-100231000D01*
X161388709Y-100231000D01*
X161234744Y-100268949D01*
X161234741Y-100268950D01*
X161094329Y-100342644D01*
X161094327Y-100342646D01*
X160975631Y-100447802D01*
X160885553Y-100578303D01*
X160885550Y-100578309D01*
X160829316Y-100726581D01*
X160810204Y-100883997D01*
X160810204Y-100884002D01*
X160829316Y-101041418D01*
X160885550Y-101189690D01*
X160885553Y-101189696D01*
X160975632Y-101320198D01*
X160980685Y-101325901D01*
X160979570Y-101326888D01*
X161012777Y-101379824D01*
X161017500Y-101413997D01*
X161017500Y-120166002D01*
X160997498Y-120234123D01*
X160980511Y-120253946D01*
X160980684Y-120254100D01*
X160975631Y-120259802D01*
X160885553Y-120390303D01*
X160885550Y-120390309D01*
X160829316Y-120538581D01*
X160810204Y-120695997D01*
X160810204Y-120696002D01*
X160355319Y-120696002D01*
X160436367Y-120624199D01*
X160526449Y-120493693D01*
X160582682Y-120345421D01*
X160582682Y-120345420D01*
X160582683Y-120345418D01*
X160601796Y-120188002D01*
X160601796Y-120187997D01*
X160582683Y-120030581D01*
X160569103Y-119994775D01*
X160526449Y-119882307D01*
X160465750Y-119794370D01*
X160436368Y-119751802D01*
X160431316Y-119746100D01*
X160432428Y-119745114D01*
X160399218Y-119692160D01*
X160394500Y-119658002D01*
X160394500Y-90757997D01*
X160414502Y-90689876D01*
X160431488Y-90670054D01*
X160431315Y-90669901D01*
X160436362Y-90664202D01*
X160436367Y-90664199D01*
X160526449Y-90533693D01*
X160582682Y-90385421D01*
X160582682Y-90385420D01*
X160582683Y-90385418D01*
X160601796Y-90228002D01*
X160601796Y-90227997D01*
X160582683Y-90070581D01*
X160569103Y-90034775D01*
X160526449Y-89922307D01*
X160470697Y-89841536D01*
X160436368Y-89791802D01*
X160317672Y-89686646D01*
X160317670Y-89686644D01*
X160177258Y-89612950D01*
X160177255Y-89612949D01*
X160023290Y-89575000D01*
X160023289Y-89575000D01*
X159966293Y-89575000D01*
X159898172Y-89554998D01*
X159851679Y-89501342D01*
X159841575Y-89431068D01*
X159871069Y-89366488D01*
X159877198Y-89359905D01*
X160449698Y-88787405D01*
X160512010Y-88753379D01*
X160538793Y-88750500D01*
X163099221Y-88750500D01*
X163167342Y-88770502D01*
G37*
G04 #@! TD.AperFunction*
G04 #@! TA.AperFunction,Conductor*
G36*
X198430305Y-65511100D02*
G01*
X198518685Y-65550876D01*
X198525425Y-65554413D01*
X198746202Y-65687879D01*
X198752458Y-65692197D01*
X198955540Y-65851302D01*
X198961230Y-65856343D01*
X199143655Y-66038768D01*
X199148697Y-66044459D01*
X199307802Y-66247541D01*
X199312123Y-66253800D01*
X199445589Y-66474579D01*
X199449125Y-66481316D01*
X199488899Y-66569691D01*
X199500000Y-66621402D01*
X199500000Y-138378594D01*
X199488899Y-138430306D01*
X199449123Y-138518686D01*
X199445584Y-138525429D01*
X199312128Y-138746191D01*
X199307802Y-138752458D01*
X199148697Y-138955540D01*
X199143648Y-138961239D01*
X198961239Y-139143648D01*
X198955540Y-139148697D01*
X198752458Y-139307802D01*
X198746191Y-139312128D01*
X198525429Y-139445584D01*
X198518686Y-139449123D01*
X198430306Y-139488899D01*
X198378594Y-139500000D01*
X101621406Y-139500000D01*
X101569694Y-139488900D01*
X101481313Y-139449123D01*
X101474571Y-139445584D01*
X101420297Y-139412774D01*
X101253800Y-139312123D01*
X101247541Y-139307802D01*
X101044459Y-139148697D01*
X101038768Y-139143655D01*
X100856343Y-138961230D01*
X100851302Y-138955540D01*
X100692194Y-138752454D01*
X100687879Y-138746202D01*
X100554413Y-138525425D01*
X100550876Y-138518685D01*
X100511100Y-138430305D01*
X100500000Y-138378594D01*
X100500000Y-131569596D01*
X102095687Y-131569596D01*
X102126114Y-131846128D01*
X102196480Y-132115278D01*
X102266924Y-132281046D01*
X102305284Y-132371314D01*
X102450208Y-132608781D01*
X102628163Y-132822617D01*
X102835357Y-133008263D01*
X103067373Y-133161763D01*
X103319267Y-133279846D01*
X103585669Y-133359995D01*
X103860895Y-133400499D01*
X103860898Y-133400500D01*
X103860901Y-133400500D01*
X104069465Y-133400500D01*
X104102315Y-133398095D01*
X104277455Y-133385277D01*
X104548997Y-133324788D01*
X104808838Y-133225408D01*
X105051440Y-133089253D01*
X105271632Y-132919226D01*
X105464722Y-132718951D01*
X105626593Y-132492696D01*
X105753797Y-132245283D01*
X105843621Y-131981986D01*
X105894152Y-131708416D01*
X105904313Y-131430404D01*
X105873886Y-131153876D01*
X105803520Y-130884724D01*
X105694716Y-130628686D01*
X105549792Y-130391219D01*
X105371837Y-130177383D01*
X105164643Y-129991737D01*
X104932627Y-129838237D01*
X104796860Y-129774592D01*
X104680734Y-129720154D01*
X104601263Y-129696244D01*
X104414331Y-129640005D01*
X104414326Y-129640004D01*
X104414322Y-129640003D01*
X104139103Y-129599500D01*
X104139099Y-129599500D01*
X103930537Y-129599500D01*
X103930535Y-129599500D01*
X103722541Y-129614723D01*
X103451009Y-129675210D01*
X103450997Y-129675214D01*
X103191161Y-129774592D01*
X102948559Y-129910747D01*
X102728366Y-130080775D01*
X102728365Y-130080776D01*
X102535280Y-130281046D01*
X102373404Y-130507307D01*
X102246204Y-130754714D01*
X102156377Y-131018020D01*
X102105847Y-131291587D01*
X102095687Y-131569596D01*
X100500000Y-131569596D01*
X100500000Y-95746000D01*
X108842000Y-95746000D01*
X109668884Y-95746000D01*
X109640507Y-95790156D01*
X109600000Y-95928111D01*
X109600000Y-96071889D01*
X109640507Y-96209844D01*
X109668884Y-96254000D01*
X108842001Y-96254000D01*
X108842001Y-96969127D01*
X108844810Y-97022034D01*
X108844810Y-97022036D01*
X108889514Y-97253181D01*
X108972635Y-97473436D01*
X109091785Y-97676478D01*
X109243535Y-97856464D01*
X109423521Y-98008214D01*
X109626564Y-98127364D01*
X109626563Y-98127364D01*
X109846818Y-98210485D01*
X110077963Y-98255189D01*
X110130870Y-98258000D01*
X110846000Y-98257999D01*
X110846000Y-96500000D01*
X111354000Y-96500000D01*
X111354000Y-98257999D01*
X112069127Y-98257999D01*
X112122034Y-98255189D01*
X112122036Y-98255189D01*
X112353181Y-98210485D01*
X112573436Y-98127364D01*
X112776478Y-98008214D01*
X112956464Y-97856464D01*
X113108214Y-97676478D01*
X113227364Y-97473436D01*
X113310485Y-97253181D01*
X113355189Y-97022036D01*
X113358000Y-96969130D01*
X113358000Y-96254000D01*
X112531116Y-96254000D01*
X112559493Y-96209844D01*
X112600000Y-96071889D01*
X112600000Y-95928111D01*
X112559493Y-95790156D01*
X112531116Y-95746000D01*
X113357999Y-95746000D01*
X113357999Y-95030873D01*
X113355189Y-94977965D01*
X113355189Y-94977963D01*
X113310485Y-94746818D01*
X113227364Y-94526563D01*
X113108214Y-94323521D01*
X112956464Y-94143535D01*
X112776478Y-93991785D01*
X112573435Y-93872635D01*
X112573436Y-93872635D01*
X112353181Y-93789514D01*
X112122036Y-93744810D01*
X112069130Y-93742000D01*
X111354000Y-93742000D01*
X111354000Y-95500000D01*
X110846000Y-95500000D01*
X110846000Y-93742000D01*
X110130873Y-93742001D01*
X110077965Y-93744810D01*
X110077963Y-93744810D01*
X109846818Y-93789514D01*
X109626563Y-93872635D01*
X109423521Y-93991785D01*
X109243535Y-94143535D01*
X109091785Y-94323521D01*
X108972635Y-94526563D01*
X108889514Y-94746818D01*
X108844810Y-94977963D01*
X108842000Y-95030870D01*
X108842000Y-95746000D01*
X100500000Y-95746000D01*
X100500000Y-92364613D01*
X106092000Y-92364613D01*
X106102467Y-92497593D01*
X106157794Y-92717167D01*
X106157797Y-92717176D01*
X106251441Y-92923340D01*
X106251444Y-92923346D01*
X106380394Y-93109473D01*
X106380408Y-93109490D01*
X106540509Y-93269591D01*
X106540526Y-93269605D01*
X106726653Y-93398555D01*
X106726659Y-93398558D01*
X106932823Y-93492202D01*
X106932832Y-93492205D01*
X107152406Y-93547532D01*
X107285387Y-93558000D01*
X107846000Y-93558000D01*
X107846000Y-92731115D01*
X107890156Y-92759493D01*
X108028111Y-92800000D01*
X108171889Y-92800000D01*
X108309844Y-92759493D01*
X108354000Y-92731115D01*
X108354000Y-93558000D01*
X108914613Y-93558000D01*
X109047593Y-93547532D01*
X109267167Y-93492205D01*
X109267176Y-93492202D01*
X109473340Y-93398558D01*
X109473346Y-93398555D01*
X109659473Y-93269605D01*
X109659490Y-93269591D01*
X109819591Y-93109490D01*
X109819605Y-93109473D01*
X109837765Y-93083261D01*
X111999500Y-93083261D01*
X112009427Y-93151394D01*
X112060801Y-93256482D01*
X112060803Y-93256485D01*
X112143514Y-93339196D01*
X112143517Y-93339198D01*
X112248607Y-93390573D01*
X112316740Y-93400500D01*
X112316745Y-93400500D01*
X115883255Y-93400500D01*
X115883260Y-93400500D01*
X115951393Y-93390573D01*
X116056483Y-93339198D01*
X116139198Y-93256483D01*
X116190573Y-93151393D01*
X116200500Y-93083260D01*
X116200500Y-89516740D01*
X116190573Y-89448607D01*
X116166812Y-89400002D01*
X146942204Y-89400002D01*
X146961316Y-89557418D01*
X147017550Y-89705690D01*
X147017553Y-89705696D01*
X147107632Y-89836198D01*
X147112685Y-89841901D01*
X147111570Y-89842888D01*
X147144777Y-89895824D01*
X147149500Y-89929997D01*
X147149500Y-134971156D01*
X147149104Y-134978215D01*
X147144730Y-135017036D01*
X147155788Y-135075478D01*
X147164653Y-135134291D01*
X147167160Y-135142421D01*
X147169978Y-135150474D01*
X147197776Y-135203072D01*
X147223575Y-135256643D01*
X147228386Y-135263699D01*
X147233435Y-135270540D01*
X147275495Y-135312599D01*
X147315945Y-135356194D01*
X147315946Y-135356195D01*
X147323329Y-135362082D01*
X147322788Y-135362760D01*
X147335117Y-135372221D01*
X148461056Y-136498159D01*
X148465758Y-136503421D01*
X148490119Y-136533968D01*
X148490121Y-136533970D01*
X148539271Y-136567480D01*
X148587118Y-136602793D01*
X148587121Y-136602794D01*
X148594669Y-136606783D01*
X148602322Y-136610468D01*
X148602327Y-136610472D01*
X148640223Y-136622161D01*
X148659171Y-136628006D01*
X148682586Y-136636199D01*
X148715300Y-136647646D01*
X148715304Y-136647646D01*
X148723677Y-136649230D01*
X148732096Y-136650499D01*
X148732098Y-136650500D01*
X148732100Y-136650500D01*
X148791573Y-136650500D01*
X148851010Y-136652724D01*
X148851015Y-136652722D01*
X148860390Y-136651667D01*
X148860487Y-136652528D01*
X148875897Y-136650500D01*
X150475990Y-136650500D01*
X150544111Y-136670502D01*
X150559539Y-136682184D01*
X150626329Y-136741355D01*
X150766742Y-136815050D01*
X150920711Y-136853000D01*
X150920712Y-136853000D01*
X151079288Y-136853000D01*
X151079289Y-136853000D01*
X151233258Y-136815050D01*
X151373671Y-136741355D01*
X151492367Y-136636199D01*
X151582449Y-136505693D01*
X151638682Y-136357421D01*
X151638682Y-136357420D01*
X151638683Y-136357418D01*
X151657796Y-136200002D01*
X151657796Y-136199997D01*
X151638683Y-136042581D01*
X151625103Y-136006775D01*
X151582449Y-135894307D01*
X151492367Y-135763801D01*
X151373671Y-135658645D01*
X151373670Y-135658644D01*
X151233258Y-135584950D01*
X151233255Y-135584949D01*
X151079290Y-135547000D01*
X151079289Y-135547000D01*
X150920711Y-135547000D01*
X150920709Y-135547000D01*
X150766744Y-135584949D01*
X150766741Y-135584950D01*
X150626329Y-135658644D01*
X150626327Y-135658646D01*
X150588701Y-135691979D01*
X150559542Y-135717812D01*
X150495291Y-135748013D01*
X150475990Y-135749500D01*
X149038793Y-135749500D01*
X148970672Y-135729498D01*
X148949698Y-135712595D01*
X148087405Y-134850302D01*
X148053379Y-134787990D01*
X148050500Y-134761207D01*
X148050500Y-133569596D01*
X194095687Y-133569596D01*
X194126114Y-133846128D01*
X194196480Y-134115278D01*
X194269016Y-134285968D01*
X194305284Y-134371314D01*
X194450208Y-134608781D01*
X194628163Y-134822617D01*
X194835357Y-135008263D01*
X195067373Y-135161763D01*
X195319267Y-135279846D01*
X195585669Y-135359995D01*
X195860895Y-135400499D01*
X195860898Y-135400500D01*
X195860901Y-135400500D01*
X196069465Y-135400500D01*
X196102315Y-135398095D01*
X196277455Y-135385277D01*
X196548997Y-135324788D01*
X196808838Y-135225408D01*
X197051440Y-135089253D01*
X197271632Y-134919226D01*
X197464722Y-134718951D01*
X197626593Y-134492696D01*
X197753797Y-134245283D01*
X197843621Y-133981986D01*
X197894152Y-133708416D01*
X197904313Y-133430404D01*
X197873886Y-133153876D01*
X197803520Y-132884724D01*
X197694716Y-132628686D01*
X197549792Y-132391219D01*
X197371837Y-132177383D01*
X197164643Y-131991737D01*
X196932627Y-131838237D01*
X196796860Y-131774592D01*
X196680734Y-131720154D01*
X196601263Y-131696244D01*
X196414331Y-131640005D01*
X196414326Y-131640004D01*
X196414322Y-131640003D01*
X196139103Y-131599500D01*
X196139099Y-131599500D01*
X195930537Y-131599500D01*
X195930535Y-131599500D01*
X195722541Y-131614723D01*
X195451009Y-131675210D01*
X195450997Y-131675214D01*
X195191161Y-131774592D01*
X194948559Y-131910747D01*
X194728366Y-132080775D01*
X194728365Y-132080776D01*
X194535280Y-132281046D01*
X194373404Y-132507307D01*
X194246204Y-132754714D01*
X194156377Y-133018020D01*
X194105847Y-133291587D01*
X194095687Y-133569596D01*
X148050500Y-133569596D01*
X148050500Y-131569596D01*
X151095687Y-131569596D01*
X151126114Y-131846128D01*
X151196480Y-132115278D01*
X151266924Y-132281046D01*
X151305284Y-132371314D01*
X151450208Y-132608781D01*
X151628163Y-132822617D01*
X151835357Y-133008263D01*
X152067373Y-133161763D01*
X152319267Y-133279846D01*
X152585669Y-133359995D01*
X152860895Y-133400499D01*
X152860898Y-133400500D01*
X152860901Y-133400500D01*
X153069465Y-133400500D01*
X153102315Y-133398095D01*
X153277455Y-133385277D01*
X153548997Y-133324788D01*
X153808838Y-133225408D01*
X154051440Y-133089253D01*
X154271632Y-132919226D01*
X154464722Y-132718951D01*
X154626593Y-132492696D01*
X154753797Y-132245283D01*
X154843621Y-131981986D01*
X154894152Y-131708416D01*
X154904313Y-131430404D01*
X154873886Y-131153876D01*
X154803520Y-130884724D01*
X154694716Y-130628686D01*
X154549792Y-130391219D01*
X154371837Y-130177383D01*
X154164643Y-129991737D01*
X153932627Y-129838237D01*
X153796860Y-129774592D01*
X153680734Y-129720154D01*
X153601263Y-129696244D01*
X153414331Y-129640005D01*
X153414326Y-129640004D01*
X153414322Y-129640003D01*
X153139103Y-129599500D01*
X153139099Y-129599500D01*
X152930537Y-129599500D01*
X152930535Y-129599500D01*
X152722541Y-129614723D01*
X152451009Y-129675210D01*
X152450997Y-129675214D01*
X152191161Y-129774592D01*
X151948559Y-129910747D01*
X151728366Y-130080775D01*
X151728365Y-130080776D01*
X151535280Y-130281046D01*
X151373404Y-130507307D01*
X151246204Y-130754714D01*
X151156377Y-131018020D01*
X151105847Y-131291587D01*
X151095687Y-131569596D01*
X148050500Y-131569596D01*
X148050500Y-94617036D01*
X148544730Y-94617036D01*
X148545149Y-94619248D01*
X148555788Y-94675479D01*
X148559426Y-94699618D01*
X148564653Y-94734291D01*
X148567160Y-94742421D01*
X148569978Y-94750474D01*
X148597776Y-94803072D01*
X148623575Y-94856643D01*
X148628386Y-94863699D01*
X148633435Y-94870540D01*
X148675495Y-94912599D01*
X148682716Y-94920382D01*
X148715945Y-94956194D01*
X148715946Y-94956195D01*
X148723329Y-94962082D01*
X148722788Y-94962760D01*
X148735117Y-94972221D01*
X150141056Y-96378159D01*
X150145758Y-96383421D01*
X150170119Y-96413968D01*
X150170125Y-96413973D01*
X150190353Y-96427764D01*
X150219271Y-96447480D01*
X150267118Y-96482793D01*
X150267121Y-96482794D01*
X150274660Y-96486779D01*
X150282324Y-96490470D01*
X150282327Y-96490472D01*
X150339177Y-96508007D01*
X150395301Y-96527646D01*
X150395307Y-96527646D01*
X150403715Y-96529237D01*
X150412094Y-96530500D01*
X150412098Y-96530500D01*
X150471573Y-96530500D01*
X150474083Y-96530593D01*
X150520795Y-96532341D01*
X150588118Y-96554875D01*
X150628873Y-96602090D01*
X150684938Y-96714684D01*
X150684942Y-96714689D01*
X150819017Y-96892235D01*
X150983438Y-97042124D01*
X150983439Y-97042125D01*
X151172587Y-97159240D01*
X151172590Y-97159241D01*
X151172599Y-97159247D01*
X151261568Y-97193714D01*
X151361708Y-97232509D01*
X151418003Y-97275768D01*
X151441973Y-97342596D01*
X151426009Y-97411774D01*
X151375178Y-97461340D01*
X151361708Y-97467491D01*
X151172603Y-97540751D01*
X151172587Y-97540759D01*
X150983439Y-97657874D01*
X150983438Y-97657875D01*
X150819017Y-97807764D01*
X150684942Y-97985310D01*
X150684938Y-97985315D01*
X150585774Y-98184462D01*
X150585768Y-98184479D01*
X150524885Y-98398460D01*
X150504357Y-98620000D01*
X150524885Y-98841539D01*
X150585768Y-99055520D01*
X150585774Y-99055537D01*
X150684938Y-99254684D01*
X150684942Y-99254689D01*
X150819017Y-99432235D01*
X150983438Y-99582124D01*
X150983439Y-99582125D01*
X151172587Y-99699240D01*
X151172590Y-99699241D01*
X151172599Y-99699247D01*
X151245518Y-99727496D01*
X151361708Y-99772509D01*
X151418003Y-99815768D01*
X151441973Y-99882596D01*
X151426009Y-99951774D01*
X151375178Y-100001340D01*
X151361708Y-100007491D01*
X151172603Y-100080751D01*
X151172587Y-100080759D01*
X150983439Y-100197874D01*
X150983438Y-100197875D01*
X150819017Y-100347764D01*
X150684942Y-100525310D01*
X150684938Y-100525315D01*
X150585774Y-100724462D01*
X150585768Y-100724479D01*
X150524885Y-100938460D01*
X150504357Y-101160000D01*
X150524885Y-101381539D01*
X150585768Y-101595520D01*
X150585774Y-101595537D01*
X150684938Y-101794684D01*
X150684942Y-101794689D01*
X150819017Y-101972235D01*
X150983438Y-102122124D01*
X150983439Y-102122125D01*
X151172587Y-102239240D01*
X151172590Y-102239241D01*
X151172599Y-102239247D01*
X151261568Y-102273714D01*
X151361708Y-102312509D01*
X151418003Y-102355768D01*
X151441973Y-102422596D01*
X151426009Y-102491774D01*
X151375178Y-102541340D01*
X151361708Y-102547491D01*
X151172603Y-102620751D01*
X151172587Y-102620759D01*
X150983439Y-102737874D01*
X150983438Y-102737875D01*
X150819017Y-102887764D01*
X150684942Y-103065310D01*
X150684938Y-103065315D01*
X150585774Y-103264462D01*
X150585768Y-103264479D01*
X150524885Y-103478460D01*
X150504357Y-103700000D01*
X150524885Y-103921539D01*
X150585768Y-104135520D01*
X150585774Y-104135537D01*
X150684938Y-104334684D01*
X150684942Y-104334689D01*
X150819017Y-104512235D01*
X150983438Y-104662124D01*
X150983439Y-104662125D01*
X151172587Y-104779240D01*
X151172590Y-104779241D01*
X151172599Y-104779247D01*
X151261568Y-104813714D01*
X151361708Y-104852509D01*
X151418003Y-104895768D01*
X151441973Y-104962596D01*
X151426009Y-105031774D01*
X151375178Y-105081340D01*
X151361708Y-105087491D01*
X151172603Y-105160751D01*
X151172587Y-105160759D01*
X150983439Y-105277874D01*
X150983438Y-105277875D01*
X150819017Y-105427764D01*
X150684942Y-105605310D01*
X150684938Y-105605315D01*
X150585774Y-105804462D01*
X150585768Y-105804479D01*
X150524885Y-106018460D01*
X150504357Y-106240000D01*
X150524885Y-106461539D01*
X150585768Y-106675520D01*
X150585774Y-106675537D01*
X150684938Y-106874684D01*
X150684942Y-106874689D01*
X150819017Y-107052235D01*
X150983435Y-107202122D01*
X150983437Y-107202123D01*
X150983438Y-107202124D01*
X151166546Y-107315499D01*
X151213933Y-107368365D01*
X151225216Y-107438460D01*
X151196812Y-107503527D01*
X151160185Y-107533439D01*
X150964704Y-107639228D01*
X150964698Y-107639232D01*
X150787097Y-107777465D01*
X150634674Y-107943041D01*
X150511580Y-108131451D01*
X150421179Y-108337543D01*
X150421176Y-108337550D01*
X150373455Y-108525999D01*
X150373456Y-108526000D01*
X151278884Y-108526000D01*
X151250507Y-108570156D01*
X151210000Y-108708111D01*
X151210000Y-108851889D01*
X151250507Y-108989844D01*
X151278884Y-109034000D01*
X150373455Y-109034000D01*
X150421176Y-109222449D01*
X150421179Y-109222456D01*
X150511580Y-109428548D01*
X150634674Y-109616958D01*
X150787097Y-109782534D01*
X150964698Y-109920767D01*
X150964699Y-109920768D01*
X151160184Y-110026559D01*
X151210575Y-110076573D01*
X151225927Y-110145889D01*
X151201366Y-110212502D01*
X151166546Y-110244500D01*
X150983436Y-110357876D01*
X150819017Y-110507764D01*
X150684942Y-110685310D01*
X150684938Y-110685315D01*
X150585774Y-110884462D01*
X150585768Y-110884479D01*
X150524885Y-111098460D01*
X150504357Y-111320000D01*
X150524885Y-111541539D01*
X150585768Y-111755520D01*
X150585774Y-111755537D01*
X150684938Y-111954684D01*
X150684942Y-111954689D01*
X150819017Y-112132235D01*
X150983438Y-112282124D01*
X150983439Y-112282125D01*
X151172587Y-112399240D01*
X151172590Y-112399241D01*
X151172599Y-112399247D01*
X151245518Y-112427496D01*
X151361708Y-112472509D01*
X151418003Y-112515768D01*
X151441973Y-112582596D01*
X151426009Y-112651774D01*
X151375178Y-112701340D01*
X151361708Y-112707491D01*
X151172603Y-112780751D01*
X151172587Y-112780759D01*
X150983439Y-112897874D01*
X150983438Y-112897875D01*
X150819017Y-113047764D01*
X150684942Y-113225310D01*
X150684938Y-113225315D01*
X150585774Y-113424462D01*
X150585768Y-113424479D01*
X150524885Y-113638460D01*
X150504357Y-113860000D01*
X150524885Y-114081539D01*
X150585768Y-114295520D01*
X150585774Y-114295537D01*
X150684938Y-114494684D01*
X150684942Y-114494689D01*
X150819017Y-114672235D01*
X150983438Y-114822124D01*
X150983439Y-114822125D01*
X151172587Y-114939240D01*
X151172590Y-114939241D01*
X151172599Y-114939247D01*
X151261568Y-114973714D01*
X151361708Y-115012509D01*
X151418003Y-115055768D01*
X151441973Y-115122596D01*
X151426009Y-115191774D01*
X151375178Y-115241340D01*
X151361708Y-115247491D01*
X151172603Y-115320751D01*
X151172587Y-115320759D01*
X150983439Y-115437874D01*
X150983438Y-115437875D01*
X150819017Y-115587764D01*
X150684942Y-115765310D01*
X150684938Y-115765315D01*
X150585774Y-115964462D01*
X150585768Y-115964479D01*
X150524885Y-116178460D01*
X150504357Y-116400000D01*
X150524885Y-116621539D01*
X150585768Y-116835520D01*
X150585774Y-116835537D01*
X150684938Y-117034684D01*
X150684942Y-117034689D01*
X150819017Y-117212235D01*
X150983438Y-117362124D01*
X150983439Y-117362125D01*
X151172587Y-117479240D01*
X151172590Y-117479241D01*
X151172599Y-117479247D01*
X151245518Y-117507496D01*
X151361708Y-117552509D01*
X151418003Y-117595768D01*
X151441973Y-117662596D01*
X151426009Y-117731774D01*
X151375178Y-117781340D01*
X151361708Y-117787491D01*
X151172603Y-117860751D01*
X151172587Y-117860759D01*
X150983439Y-117977874D01*
X150983438Y-117977875D01*
X150819017Y-118127764D01*
X150684942Y-118305310D01*
X150684938Y-118305315D01*
X150585774Y-118504462D01*
X150585768Y-118504479D01*
X150524885Y-118718460D01*
X150504357Y-118940000D01*
X150524885Y-119161539D01*
X150585768Y-119375520D01*
X150585774Y-119375537D01*
X150684938Y-119574684D01*
X150684942Y-119574689D01*
X150819017Y-119752235D01*
X150983438Y-119902124D01*
X150983439Y-119902125D01*
X151172587Y-120019240D01*
X151172590Y-120019241D01*
X151172599Y-120019247D01*
X151261568Y-120053714D01*
X151361708Y-120092509D01*
X151418003Y-120135768D01*
X151441973Y-120202596D01*
X151426009Y-120271774D01*
X151375178Y-120321340D01*
X151361708Y-120327491D01*
X151172603Y-120400751D01*
X151172587Y-120400759D01*
X150983439Y-120517874D01*
X150983438Y-120517875D01*
X150819017Y-120667764D01*
X150684942Y-120845310D01*
X150684938Y-120845315D01*
X150585774Y-121044462D01*
X150585768Y-121044479D01*
X150524885Y-121258460D01*
X150504357Y-121480000D01*
X150524885Y-121701539D01*
X150585768Y-121915520D01*
X150585774Y-121915537D01*
X150684938Y-122114684D01*
X150684942Y-122114689D01*
X150819017Y-122292235D01*
X150983438Y-122442124D01*
X150983439Y-122442125D01*
X151172587Y-122559240D01*
X151172590Y-122559241D01*
X151172599Y-122559247D01*
X151261568Y-122593714D01*
X151361708Y-122632509D01*
X151418003Y-122675768D01*
X151441973Y-122742596D01*
X151426009Y-122811774D01*
X151375178Y-122861340D01*
X151361708Y-122867491D01*
X151172603Y-122940751D01*
X151172587Y-122940759D01*
X150983439Y-123057874D01*
X150983438Y-123057875D01*
X150819017Y-123207764D01*
X150684942Y-123385310D01*
X150684938Y-123385315D01*
X150585774Y-123584462D01*
X150585768Y-123584479D01*
X150524885Y-123798460D01*
X150504357Y-124020000D01*
X150524885Y-124241539D01*
X150585768Y-124455520D01*
X150585774Y-124455537D01*
X150684938Y-124654684D01*
X150684942Y-124654689D01*
X150819017Y-124832235D01*
X150983435Y-124982122D01*
X150983437Y-124982123D01*
X150983438Y-124982124D01*
X151166546Y-125095499D01*
X151213933Y-125148365D01*
X151225216Y-125218460D01*
X151196812Y-125283527D01*
X151160185Y-125313439D01*
X150964704Y-125419228D01*
X150964698Y-125419232D01*
X150787097Y-125557465D01*
X150634674Y-125723041D01*
X150511580Y-125911451D01*
X150421179Y-126117543D01*
X150421176Y-126117550D01*
X150373455Y-126305999D01*
X150373456Y-126306000D01*
X151278884Y-126306000D01*
X151250507Y-126350156D01*
X151210000Y-126488111D01*
X151210000Y-126631889D01*
X151250507Y-126769844D01*
X151278884Y-126814000D01*
X150373455Y-126814000D01*
X150421176Y-127002449D01*
X150421179Y-127002456D01*
X150511580Y-127208548D01*
X150634674Y-127396958D01*
X150787097Y-127562534D01*
X150964698Y-127700767D01*
X150964699Y-127700768D01*
X151162628Y-127807882D01*
X151162630Y-127807883D01*
X151375483Y-127880955D01*
X151375492Y-127880957D01*
X151456000Y-127894391D01*
X151456000Y-126993674D01*
X151567685Y-127044680D01*
X151674237Y-127060000D01*
X151745763Y-127060000D01*
X151852315Y-127044680D01*
X151964000Y-126993674D01*
X151964000Y-127894390D01*
X152044507Y-127880957D01*
X152044516Y-127880955D01*
X152257369Y-127807883D01*
X152257371Y-127807882D01*
X152455300Y-127700768D01*
X152455301Y-127700767D01*
X152632902Y-127562534D01*
X152785325Y-127396958D01*
X152908419Y-127208548D01*
X152951733Y-127109804D01*
X152997414Y-127055456D01*
X153065226Y-127034432D01*
X153133640Y-127053408D01*
X153179910Y-127104255D01*
X153224938Y-127194684D01*
X153224942Y-127194689D01*
X153359017Y-127372235D01*
X153523438Y-127522124D01*
X153523439Y-127522125D01*
X153712587Y-127639240D01*
X153712590Y-127639241D01*
X153712599Y-127639247D01*
X153802989Y-127674264D01*
X153920053Y-127719616D01*
X153920056Y-127719616D01*
X153920060Y-127719618D01*
X154138757Y-127760500D01*
X154138760Y-127760500D01*
X154361240Y-127760500D01*
X154361243Y-127760500D01*
X154579940Y-127719618D01*
X154579944Y-127719616D01*
X154579946Y-127719616D01*
X154633298Y-127698946D01*
X154787401Y-127639247D01*
X154976562Y-127522124D01*
X155140981Y-127372236D01*
X155275058Y-127194689D01*
X155275059Y-127194685D01*
X155275061Y-127194684D01*
X155374225Y-126995537D01*
X155374226Y-126995533D01*
X155374229Y-126995528D01*
X155435115Y-126781536D01*
X155455643Y-126560000D01*
X155435115Y-126338464D01*
X155395056Y-126197673D01*
X155374231Y-126124479D01*
X155374225Y-126124462D01*
X155275061Y-125925315D01*
X155275057Y-125925310D01*
X155220023Y-125852432D01*
X155194933Y-125786016D01*
X155209733Y-125716579D01*
X155259724Y-125666167D01*
X155320573Y-125650500D01*
X157761206Y-125650500D01*
X157829327Y-125670502D01*
X157850301Y-125687405D01*
X159061056Y-126898159D01*
X159065758Y-126903421D01*
X159082572Y-126924504D01*
X159090121Y-126933970D01*
X159139271Y-126967480D01*
X159187118Y-127002793D01*
X159187121Y-127002794D01*
X159194660Y-127006779D01*
X159202324Y-127010470D01*
X159202327Y-127010472D01*
X159259177Y-127028007D01*
X159315301Y-127047646D01*
X159315307Y-127047646D01*
X159323715Y-127049237D01*
X159332094Y-127050500D01*
X159391574Y-127050500D01*
X159451010Y-127052724D01*
X159451016Y-127052722D01*
X159460390Y-127051667D01*
X159460487Y-127052528D01*
X159475897Y-127050500D01*
X162988778Y-127050500D01*
X163056899Y-127070502D01*
X163103392Y-127124158D01*
X163113496Y-127194432D01*
X163101569Y-127232663D01*
X163075771Y-127284471D01*
X163075768Y-127284479D01*
X163014885Y-127498460D01*
X162994357Y-127720000D01*
X163014885Y-127941539D01*
X163075768Y-128155520D01*
X163075774Y-128155537D01*
X163174938Y-128354684D01*
X163174942Y-128354689D01*
X163309017Y-128532235D01*
X163473438Y-128682124D01*
X163473439Y-128682125D01*
X163662587Y-128799240D01*
X163662590Y-128799241D01*
X163662599Y-128799247D01*
X163752989Y-128834264D01*
X163870053Y-128879616D01*
X163870056Y-128879616D01*
X163870060Y-128879618D01*
X164088757Y-128920500D01*
X164088760Y-128920500D01*
X164311240Y-128920500D01*
X164311243Y-128920500D01*
X164529940Y-128879618D01*
X164529944Y-128879616D01*
X164529946Y-128879616D01*
X164583298Y-128858946D01*
X164737401Y-128799247D01*
X164926562Y-128682124D01*
X165090981Y-128532236D01*
X165225058Y-128354689D01*
X165225059Y-128354685D01*
X165225061Y-128354684D01*
X165324225Y-128155537D01*
X165324226Y-128155533D01*
X165324229Y-128155528D01*
X165385115Y-127941536D01*
X165405643Y-127720000D01*
X165385115Y-127498464D01*
X165324229Y-127284472D01*
X165298430Y-127232662D01*
X165285973Y-127162768D01*
X165313279Y-127097233D01*
X165371683Y-127056865D01*
X165411222Y-127050500D01*
X179171157Y-127050500D01*
X179178211Y-127050895D01*
X179217035Y-127055270D01*
X179217035Y-127055269D01*
X179217036Y-127055270D01*
X179217036Y-127055269D01*
X179242397Y-127050470D01*
X179275478Y-127044212D01*
X179306636Y-127039515D01*
X179334287Y-127035348D01*
X179334295Y-127035343D01*
X179342472Y-127032821D01*
X179350472Y-127030023D01*
X179403073Y-127002222D01*
X179420484Y-126993836D01*
X179456642Y-126976425D01*
X179456646Y-126976421D01*
X179463685Y-126971622D01*
X179470531Y-126966569D01*
X179470538Y-126966566D01*
X179512599Y-126924504D01*
X179556194Y-126884055D01*
X179556197Y-126884048D01*
X179562081Y-126876672D01*
X179562761Y-126877214D01*
X179572217Y-126864885D01*
X180098166Y-126338935D01*
X180103418Y-126334241D01*
X180133970Y-126309879D01*
X180167480Y-126260728D01*
X180202793Y-126212882D01*
X180202793Y-126212879D01*
X180202795Y-126212878D01*
X180206781Y-126205336D01*
X180210471Y-126197674D01*
X180210470Y-126197674D01*
X180210472Y-126197673D01*
X180228007Y-126140822D01*
X180247646Y-126084699D01*
X180247646Y-126084692D01*
X180249230Y-126076322D01*
X180250500Y-126067899D01*
X180250500Y-126008426D01*
X180251106Y-125992235D01*
X180252724Y-125948990D01*
X180252722Y-125948984D01*
X180251667Y-125939608D01*
X180252528Y-125939510D01*
X180250500Y-125924102D01*
X180250500Y-113638794D01*
X180270502Y-113570673D01*
X180287405Y-113549699D01*
X180869699Y-112967405D01*
X180932011Y-112933379D01*
X180958794Y-112930500D01*
X194805211Y-112930500D01*
X194873332Y-112950502D01*
X194917999Y-113000334D01*
X194974942Y-113114689D01*
X194974943Y-113114690D01*
X195109017Y-113292235D01*
X195273438Y-113442124D01*
X195273439Y-113442125D01*
X195462587Y-113559240D01*
X195462590Y-113559241D01*
X195462599Y-113559247D01*
X195551568Y-113593714D01*
X195651708Y-113632509D01*
X195708003Y-113675768D01*
X195731973Y-113742596D01*
X195716009Y-113811774D01*
X195665178Y-113861340D01*
X195651708Y-113867491D01*
X195462603Y-113940751D01*
X195462587Y-113940759D01*
X195273439Y-114057874D01*
X195273438Y-114057875D01*
X195109017Y-114207764D01*
X194974942Y-114385310D01*
X194974938Y-114385315D01*
X194875774Y-114584462D01*
X194875768Y-114584479D01*
X194814885Y-114798460D01*
X194794357Y-115020000D01*
X194814885Y-115241539D01*
X194875768Y-115455520D01*
X194875774Y-115455537D01*
X194974938Y-115654684D01*
X194974942Y-115654689D01*
X195109017Y-115832235D01*
X195273438Y-115982124D01*
X195273439Y-115982125D01*
X195462587Y-116099240D01*
X195462590Y-116099241D01*
X195462599Y-116099247D01*
X195526486Y-116123997D01*
X195651708Y-116172509D01*
X195708003Y-116215768D01*
X195731973Y-116282596D01*
X195716009Y-116351774D01*
X195665178Y-116401340D01*
X195651708Y-116407491D01*
X195462603Y-116480751D01*
X195462587Y-116480759D01*
X195273439Y-116597874D01*
X195273438Y-116597875D01*
X195109017Y-116747764D01*
X194974942Y-116925310D01*
X194974938Y-116925315D01*
X194875774Y-117124462D01*
X194875768Y-117124479D01*
X194814885Y-117338460D01*
X194794357Y-117560000D01*
X194814885Y-117781539D01*
X194875768Y-117995520D01*
X194875774Y-117995537D01*
X194974938Y-118194684D01*
X194974942Y-118194689D01*
X195109017Y-118372235D01*
X195273438Y-118522124D01*
X195273439Y-118522125D01*
X195462587Y-118639240D01*
X195462590Y-118639241D01*
X195462599Y-118639247D01*
X195551568Y-118673714D01*
X195651708Y-118712509D01*
X195708003Y-118755768D01*
X195731973Y-118822596D01*
X195716009Y-118891774D01*
X195665178Y-118941340D01*
X195651708Y-118947491D01*
X195462603Y-119020751D01*
X195462587Y-119020759D01*
X195273439Y-119137874D01*
X195273438Y-119137875D01*
X195109017Y-119287764D01*
X194974942Y-119465310D01*
X194974938Y-119465315D01*
X194875774Y-119664462D01*
X194875768Y-119664479D01*
X194814885Y-119878460D01*
X194794357Y-120100000D01*
X194814885Y-120321539D01*
X194875768Y-120535520D01*
X194875774Y-120535537D01*
X194974938Y-120734684D01*
X194974942Y-120734689D01*
X195109017Y-120912235D01*
X195273438Y-121062124D01*
X195273439Y-121062125D01*
X195462587Y-121179240D01*
X195462590Y-121179241D01*
X195462599Y-121179247D01*
X195551568Y-121213714D01*
X195651708Y-121252509D01*
X195708003Y-121295768D01*
X195731973Y-121362596D01*
X195716009Y-121431774D01*
X195665178Y-121481340D01*
X195651708Y-121487491D01*
X195462603Y-121560751D01*
X195462587Y-121560759D01*
X195273439Y-121677874D01*
X195273438Y-121677875D01*
X195109017Y-121827764D01*
X194974942Y-122005310D01*
X194974938Y-122005315D01*
X194875774Y-122204462D01*
X194875768Y-122204479D01*
X194814885Y-122418460D01*
X194794357Y-122640000D01*
X194814885Y-122861539D01*
X194875768Y-123075520D01*
X194875774Y-123075537D01*
X194974938Y-123274684D01*
X194974942Y-123274689D01*
X195109017Y-123452235D01*
X195273438Y-123602124D01*
X195273439Y-123602125D01*
X195462587Y-123719240D01*
X195462590Y-123719241D01*
X195462599Y-123719247D01*
X195545678Y-123751432D01*
X195651708Y-123792509D01*
X195708003Y-123835768D01*
X195731973Y-123902596D01*
X195716009Y-123971774D01*
X195665178Y-124021340D01*
X195651708Y-124027491D01*
X195462603Y-124100751D01*
X195462587Y-124100759D01*
X195273439Y-124217874D01*
X195273438Y-124217875D01*
X195109017Y-124367764D01*
X194974942Y-124545310D01*
X194974938Y-124545315D01*
X194875774Y-124744462D01*
X194875768Y-124744479D01*
X194814885Y-124958460D01*
X194794357Y-125180000D01*
X194814885Y-125401539D01*
X194875768Y-125615520D01*
X194875774Y-125615537D01*
X194974938Y-125814684D01*
X194974942Y-125814689D01*
X195109017Y-125992235D01*
X195273435Y-126142122D01*
X195273437Y-126142123D01*
X195273438Y-126142124D01*
X195456546Y-126255499D01*
X195503933Y-126308365D01*
X195515216Y-126378460D01*
X195486812Y-126443527D01*
X195450185Y-126473439D01*
X195254704Y-126579228D01*
X195254698Y-126579232D01*
X195077097Y-126717465D01*
X194924674Y-126883041D01*
X194801580Y-127071451D01*
X194711179Y-127277543D01*
X194711176Y-127277550D01*
X194663455Y-127465999D01*
X194663456Y-127466000D01*
X195568884Y-127466000D01*
X195540507Y-127510156D01*
X195500000Y-127648111D01*
X195500000Y-127791889D01*
X195540507Y-127929844D01*
X195568884Y-127974000D01*
X194663455Y-127974000D01*
X194711176Y-128162449D01*
X194711179Y-128162456D01*
X194801580Y-128368548D01*
X194924674Y-128556958D01*
X195077097Y-128722534D01*
X195254698Y-128860767D01*
X195254699Y-128860768D01*
X195452628Y-128967882D01*
X195452630Y-128967883D01*
X195665483Y-129040955D01*
X195665492Y-129040957D01*
X195746000Y-129054391D01*
X195746000Y-128153674D01*
X195857685Y-128204680D01*
X195964237Y-128220000D01*
X196035763Y-128220000D01*
X196142315Y-128204680D01*
X196254000Y-128153674D01*
X196254000Y-129054390D01*
X196334507Y-129040957D01*
X196334516Y-129040955D01*
X196547369Y-128967883D01*
X196547371Y-128967882D01*
X196745300Y-128860768D01*
X196745301Y-128860767D01*
X196922902Y-128722534D01*
X197075325Y-128556958D01*
X197198419Y-128368548D01*
X197288820Y-128162456D01*
X197288823Y-128162449D01*
X197336544Y-127974000D01*
X196431116Y-127974000D01*
X196459493Y-127929844D01*
X196500000Y-127791889D01*
X196500000Y-127648111D01*
X196459493Y-127510156D01*
X196431116Y-127466000D01*
X197336544Y-127466000D01*
X197336544Y-127465999D01*
X197288823Y-127277550D01*
X197288820Y-127277543D01*
X197198419Y-127071451D01*
X197075325Y-126883041D01*
X196922902Y-126717465D01*
X196745303Y-126579233D01*
X196549814Y-126473440D01*
X196499424Y-126423426D01*
X196484072Y-126354109D01*
X196508633Y-126287496D01*
X196543450Y-126255501D01*
X196726562Y-126142124D01*
X196890981Y-125992236D01*
X197025058Y-125814689D01*
X197025059Y-125814685D01*
X197025061Y-125814684D01*
X197124225Y-125615537D01*
X197124226Y-125615533D01*
X197124229Y-125615528D01*
X197185115Y-125401536D01*
X197205643Y-125180000D01*
X197185115Y-124958464D01*
X197168292Y-124899339D01*
X197124231Y-124744479D01*
X197124228Y-124744471D01*
X197124227Y-124744468D01*
X197124225Y-124744462D01*
X197025061Y-124545315D01*
X197025057Y-124545310D01*
X196890982Y-124367764D01*
X196726561Y-124217875D01*
X196726560Y-124217874D01*
X196537412Y-124100759D01*
X196537405Y-124100755D01*
X196537401Y-124100753D01*
X196537396Y-124100751D01*
X196348291Y-124027491D01*
X196291996Y-123984232D01*
X196268026Y-123917404D01*
X196283990Y-123848226D01*
X196334821Y-123798660D01*
X196348291Y-123792509D01*
X196429766Y-123760945D01*
X196537401Y-123719247D01*
X196726562Y-123602124D01*
X196890981Y-123452236D01*
X196904360Y-123434520D01*
X196917352Y-123417314D01*
X197025058Y-123274689D01*
X197025059Y-123274685D01*
X197025061Y-123274684D01*
X197124225Y-123075537D01*
X197124226Y-123075533D01*
X197124229Y-123075528D01*
X197185115Y-122861536D01*
X197205643Y-122640000D01*
X197185115Y-122418464D01*
X197169804Y-122364653D01*
X197124231Y-122204479D01*
X197124225Y-122204462D01*
X197025061Y-122005315D01*
X197025057Y-122005310D01*
X196890982Y-121827764D01*
X196726561Y-121677875D01*
X196726560Y-121677874D01*
X196537412Y-121560759D01*
X196537405Y-121560755D01*
X196537401Y-121560753D01*
X196487324Y-121541353D01*
X196348291Y-121487491D01*
X196291996Y-121444232D01*
X196268026Y-121377404D01*
X196283990Y-121308226D01*
X196334821Y-121258660D01*
X196348291Y-121252509D01*
X196429766Y-121220945D01*
X196537401Y-121179247D01*
X196726562Y-121062124D01*
X196890981Y-120912236D01*
X197025058Y-120734689D01*
X197025059Y-120734685D01*
X197025061Y-120734684D01*
X197124225Y-120535537D01*
X197124226Y-120535533D01*
X197124229Y-120535528D01*
X197185115Y-120321536D01*
X197205643Y-120100000D01*
X197185115Y-119878464D01*
X197133063Y-119695520D01*
X197133659Y-119624528D01*
X197165155Y-119571947D01*
X197698166Y-119038935D01*
X197703418Y-119034241D01*
X197733970Y-119009879D01*
X197767480Y-118960728D01*
X197802793Y-118912882D01*
X197802793Y-118912879D01*
X197802795Y-118912878D01*
X197806781Y-118905336D01*
X197810471Y-118897674D01*
X197810470Y-118897674D01*
X197810472Y-118897673D01*
X197828007Y-118840822D01*
X197847646Y-118784699D01*
X197847646Y-118784692D01*
X197849230Y-118776322D01*
X197850500Y-118767899D01*
X197850500Y-118708426D01*
X197851339Y-118685999D01*
X197852724Y-118648990D01*
X197852722Y-118648984D01*
X197851667Y-118639608D01*
X197852528Y-118639510D01*
X197850500Y-118624102D01*
X197850500Y-111828842D01*
X197850896Y-111821783D01*
X197855270Y-111782963D01*
X197855269Y-111782962D01*
X197844212Y-111724521D01*
X197840447Y-111699549D01*
X197835348Y-111665713D01*
X197835344Y-111665705D01*
X197832820Y-111657520D01*
X197830024Y-111649530D01*
X197829027Y-111647644D01*
X197802226Y-111596936D01*
X197776425Y-111543358D01*
X197776423Y-111543356D01*
X197776422Y-111543353D01*
X197771633Y-111536329D01*
X197766563Y-111529459D01*
X197724516Y-111487413D01*
X197684054Y-111443804D01*
X197676674Y-111437919D01*
X197677213Y-111437242D01*
X197664880Y-111427777D01*
X197439699Y-111202596D01*
X197138942Y-110901839D01*
X197134239Y-110896576D01*
X197109880Y-110866031D01*
X197109881Y-110866031D01*
X197060728Y-110832519D01*
X197015299Y-110798990D01*
X196972368Y-110742445D01*
X196966823Y-110671665D01*
X196989572Y-110621680D01*
X197025058Y-110574689D01*
X197025061Y-110574684D01*
X197124225Y-110375537D01*
X197124226Y-110375533D01*
X197124229Y-110375528D01*
X197185115Y-110161536D01*
X197205643Y-109940000D01*
X197185115Y-109718464D01*
X197124229Y-109504472D01*
X197124227Y-109504468D01*
X197124225Y-109504462D01*
X197025061Y-109305315D01*
X197025057Y-109305310D01*
X196890982Y-109127764D01*
X196726561Y-108977875D01*
X196726560Y-108977874D01*
X196537412Y-108860759D01*
X196537405Y-108860755D01*
X196537401Y-108860753D01*
X196537396Y-108860751D01*
X196348291Y-108787491D01*
X196291996Y-108744232D01*
X196268026Y-108677404D01*
X196283990Y-108608226D01*
X196334821Y-108558660D01*
X196348291Y-108552509D01*
X196385720Y-108538008D01*
X196537401Y-108479247D01*
X196726562Y-108362124D01*
X196890981Y-108212236D01*
X197025058Y-108034689D01*
X197025059Y-108034685D01*
X197025061Y-108034684D01*
X197124225Y-107835537D01*
X197124226Y-107835533D01*
X197124229Y-107835528D01*
X197185115Y-107621536D01*
X197205643Y-107400000D01*
X197185115Y-107178464D01*
X197124229Y-106964472D01*
X197124227Y-106964468D01*
X197124225Y-106964462D01*
X197025061Y-106765315D01*
X197025057Y-106765310D01*
X196890982Y-106587764D01*
X196726561Y-106437875D01*
X196726560Y-106437874D01*
X196537412Y-106320759D01*
X196537405Y-106320755D01*
X196537401Y-106320753D01*
X196537396Y-106320751D01*
X196348291Y-106247491D01*
X196291996Y-106204232D01*
X196268026Y-106137404D01*
X196283990Y-106068226D01*
X196334821Y-106018660D01*
X196348291Y-106012509D01*
X196429766Y-105980945D01*
X196537401Y-105939247D01*
X196726562Y-105822124D01*
X196890981Y-105672236D01*
X197025058Y-105494689D01*
X197025059Y-105494685D01*
X197025061Y-105494684D01*
X197124225Y-105295537D01*
X197124226Y-105295533D01*
X197124229Y-105295528D01*
X197185115Y-105081536D01*
X197205643Y-104860000D01*
X197185115Y-104638464D01*
X197124229Y-104424472D01*
X197124227Y-104424468D01*
X197124225Y-104424462D01*
X197025061Y-104225315D01*
X197025057Y-104225310D01*
X196890982Y-104047764D01*
X196726561Y-103897875D01*
X196726560Y-103897874D01*
X196537412Y-103780759D01*
X196537405Y-103780755D01*
X196537401Y-103780753D01*
X196537396Y-103780751D01*
X196348291Y-103707491D01*
X196291996Y-103664232D01*
X196268026Y-103597404D01*
X196283990Y-103528226D01*
X196334821Y-103478660D01*
X196348291Y-103472509D01*
X196429766Y-103440945D01*
X196537401Y-103399247D01*
X196726562Y-103282124D01*
X196890981Y-103132236D01*
X197025058Y-102954689D01*
X197025059Y-102954685D01*
X197025061Y-102954684D01*
X197124225Y-102755537D01*
X197124226Y-102755533D01*
X197124229Y-102755528D01*
X197185115Y-102541536D01*
X197205643Y-102320000D01*
X197185115Y-102098464D01*
X197124229Y-101884472D01*
X197124227Y-101884468D01*
X197124225Y-101884462D01*
X197025061Y-101685315D01*
X197025057Y-101685310D01*
X196890982Y-101507764D01*
X196726561Y-101357875D01*
X196726560Y-101357874D01*
X196537412Y-101240759D01*
X196537405Y-101240755D01*
X196537401Y-101240753D01*
X196537396Y-101240751D01*
X196348291Y-101167491D01*
X196291996Y-101124232D01*
X196268026Y-101057404D01*
X196283990Y-100988226D01*
X196334821Y-100938660D01*
X196348291Y-100932509D01*
X196387327Y-100917386D01*
X196537401Y-100859247D01*
X196726562Y-100742124D01*
X196890981Y-100592236D01*
X197025058Y-100414689D01*
X197025059Y-100414685D01*
X197025061Y-100414684D01*
X197124225Y-100215537D01*
X197124226Y-100215533D01*
X197124229Y-100215528D01*
X197185115Y-100001536D01*
X197205643Y-99780000D01*
X197185115Y-99558464D01*
X197124229Y-99344472D01*
X197124227Y-99344468D01*
X197124225Y-99344462D01*
X197025061Y-99145315D01*
X197025057Y-99145310D01*
X197020136Y-99138794D01*
X196957264Y-99055537D01*
X196890982Y-98967764D01*
X196726561Y-98817875D01*
X196726560Y-98817874D01*
X196537412Y-98700759D01*
X196537405Y-98700755D01*
X196537401Y-98700753D01*
X196496609Y-98684950D01*
X196348291Y-98627491D01*
X196291996Y-98584232D01*
X196268026Y-98517404D01*
X196283990Y-98448226D01*
X196334821Y-98398660D01*
X196348291Y-98392509D01*
X196429766Y-98360945D01*
X196537401Y-98319247D01*
X196726562Y-98202124D01*
X196890981Y-98052236D01*
X196892091Y-98050767D01*
X196948671Y-97975842D01*
X197025058Y-97874689D01*
X197025059Y-97874685D01*
X197025061Y-97874684D01*
X197124225Y-97675537D01*
X197124226Y-97675533D01*
X197124229Y-97675528D01*
X197185115Y-97461536D01*
X197205643Y-97240000D01*
X197185115Y-97018464D01*
X197171077Y-96969127D01*
X197124231Y-96804479D01*
X197124225Y-96804462D01*
X197025061Y-96605315D01*
X197025057Y-96605310D01*
X197022625Y-96602090D01*
X196969954Y-96532341D01*
X196890982Y-96427764D01*
X196726561Y-96277875D01*
X196726560Y-96277874D01*
X196537412Y-96160759D01*
X196537405Y-96160755D01*
X196537401Y-96160753D01*
X196537396Y-96160751D01*
X196348291Y-96087491D01*
X196291996Y-96044232D01*
X196268026Y-95977404D01*
X196283990Y-95908226D01*
X196334821Y-95858660D01*
X196348291Y-95852509D01*
X196429766Y-95820945D01*
X196537401Y-95779247D01*
X196726562Y-95662124D01*
X196890981Y-95512236D01*
X196909693Y-95487458D01*
X196941642Y-95445150D01*
X197025058Y-95334689D01*
X197025059Y-95334685D01*
X197025061Y-95334684D01*
X197124225Y-95135537D01*
X197124226Y-95135533D01*
X197124229Y-95135528D01*
X197185115Y-94921536D01*
X197205643Y-94700000D01*
X197185115Y-94478464D01*
X197124229Y-94264472D01*
X197124227Y-94264468D01*
X197124225Y-94264462D01*
X197025061Y-94065315D01*
X197025057Y-94065310D01*
X197010436Y-94045949D01*
X196957264Y-93975537D01*
X196890982Y-93887764D01*
X196726561Y-93737875D01*
X196726560Y-93737874D01*
X196537412Y-93620759D01*
X196537405Y-93620755D01*
X196537401Y-93620753D01*
X196537396Y-93620751D01*
X196348291Y-93547491D01*
X196291996Y-93504232D01*
X196268026Y-93437404D01*
X196283990Y-93368226D01*
X196334821Y-93318660D01*
X196348291Y-93312509D01*
X196387327Y-93297386D01*
X196537401Y-93239247D01*
X196726562Y-93122124D01*
X196890981Y-92972236D01*
X197025058Y-92794689D01*
X197025059Y-92794685D01*
X197025061Y-92794684D01*
X197124225Y-92595537D01*
X197124226Y-92595533D01*
X197124229Y-92595528D01*
X197185115Y-92381536D01*
X197205643Y-92160000D01*
X197185115Y-91938464D01*
X197135661Y-91764653D01*
X197124231Y-91724479D01*
X197124225Y-91724462D01*
X197025061Y-91525315D01*
X197025057Y-91525310D01*
X196890982Y-91347764D01*
X196726561Y-91197875D01*
X196726560Y-91197874D01*
X196537412Y-91080759D01*
X196537405Y-91080755D01*
X196537401Y-91080753D01*
X196537396Y-91080751D01*
X196348291Y-91007491D01*
X196291996Y-90964232D01*
X196268026Y-90897404D01*
X196283990Y-90828226D01*
X196334821Y-90778660D01*
X196348291Y-90772509D01*
X196429766Y-90740945D01*
X196537401Y-90699247D01*
X196726562Y-90582124D01*
X196890981Y-90432236D01*
X196900517Y-90419609D01*
X196956328Y-90345702D01*
X197025058Y-90254689D01*
X197025059Y-90254685D01*
X197025061Y-90254684D01*
X197124225Y-90055537D01*
X197124226Y-90055533D01*
X197124229Y-90055528D01*
X197185115Y-89841536D01*
X197205643Y-89620000D01*
X197185115Y-89398464D01*
X197184677Y-89396926D01*
X197124231Y-89184479D01*
X197124225Y-89184462D01*
X197025061Y-88985315D01*
X197025057Y-88985310D01*
X196890982Y-88807764D01*
X196726561Y-88657875D01*
X196726560Y-88657874D01*
X196537412Y-88540759D01*
X196537405Y-88540755D01*
X196537401Y-88540753D01*
X196537396Y-88540751D01*
X196348291Y-88467491D01*
X196291996Y-88424232D01*
X196268026Y-88357404D01*
X196283990Y-88288226D01*
X196334821Y-88238660D01*
X196348291Y-88232509D01*
X196385720Y-88218008D01*
X196537401Y-88159247D01*
X196726562Y-88042124D01*
X196890981Y-87892236D01*
X196891489Y-87891564D01*
X196941517Y-87825315D01*
X197025058Y-87714689D01*
X197025059Y-87714685D01*
X197025061Y-87714684D01*
X197124225Y-87515537D01*
X197124227Y-87515532D01*
X197124229Y-87515528D01*
X197185115Y-87301536D01*
X197205643Y-87080000D01*
X197185115Y-86858464D01*
X197124229Y-86644472D01*
X197124227Y-86644468D01*
X197124225Y-86644462D01*
X197025061Y-86445315D01*
X197025057Y-86445310D01*
X196890982Y-86267764D01*
X196726561Y-86117875D01*
X196726560Y-86117874D01*
X196537412Y-86000759D01*
X196537405Y-86000755D01*
X196537401Y-86000753D01*
X196537396Y-86000751D01*
X196348291Y-85927491D01*
X196291996Y-85884232D01*
X196268026Y-85817404D01*
X196283990Y-85748226D01*
X196334821Y-85698660D01*
X196348291Y-85692509D01*
X196429766Y-85660945D01*
X196537401Y-85619247D01*
X196726562Y-85502124D01*
X196890981Y-85352236D01*
X196892091Y-85350767D01*
X196948671Y-85275842D01*
X197025058Y-85174689D01*
X197025059Y-85174685D01*
X197025061Y-85174684D01*
X197124225Y-84975537D01*
X197124226Y-84975533D01*
X197124229Y-84975528D01*
X197185115Y-84761536D01*
X197205643Y-84540000D01*
X197185115Y-84318464D01*
X197124229Y-84104472D01*
X197124227Y-84104468D01*
X197124225Y-84104462D01*
X197025061Y-83905315D01*
X197025057Y-83905310D01*
X196890982Y-83727764D01*
X196726561Y-83577875D01*
X196726560Y-83577874D01*
X196537412Y-83460759D01*
X196537405Y-83460755D01*
X196537401Y-83460753D01*
X196537396Y-83460751D01*
X196494134Y-83443991D01*
X196437839Y-83400732D01*
X196413869Y-83333904D01*
X196429833Y-83264725D01*
X196480664Y-83215160D01*
X196539651Y-83200500D01*
X196883255Y-83200500D01*
X196883260Y-83200500D01*
X196951393Y-83190573D01*
X197056483Y-83139198D01*
X197139198Y-83056483D01*
X197190573Y-82951393D01*
X197200500Y-82883260D01*
X197200500Y-81116740D01*
X197190573Y-81048607D01*
X197139198Y-80943517D01*
X197139196Y-80943514D01*
X197056485Y-80860803D01*
X197056482Y-80860801D01*
X196951394Y-80809427D01*
X196883261Y-80799500D01*
X196883260Y-80799500D01*
X195116740Y-80799500D01*
X195116738Y-80799500D01*
X195048605Y-80809427D01*
X194943517Y-80860801D01*
X194943514Y-80860803D01*
X194860803Y-80943514D01*
X194860801Y-80943517D01*
X194809427Y-81048605D01*
X194799500Y-81116738D01*
X194799500Y-82883261D01*
X194809427Y-82951394D01*
X194860801Y-83056482D01*
X194860803Y-83056485D01*
X194943514Y-83139196D01*
X194943517Y-83139198D01*
X195048607Y-83190573D01*
X195116740Y-83200500D01*
X195116745Y-83200500D01*
X195460349Y-83200500D01*
X195528470Y-83220502D01*
X195574963Y-83274158D01*
X195585067Y-83344432D01*
X195555573Y-83409012D01*
X195505866Y-83443991D01*
X195462603Y-83460751D01*
X195462587Y-83460759D01*
X195273439Y-83577874D01*
X195273438Y-83577875D01*
X195109017Y-83727764D01*
X194974942Y-83905310D01*
X194974938Y-83905315D01*
X194875774Y-84104462D01*
X194875768Y-84104479D01*
X194814885Y-84318460D01*
X194794357Y-84540000D01*
X194814885Y-84761539D01*
X194875768Y-84975520D01*
X194875774Y-84975537D01*
X194974938Y-85174684D01*
X194974942Y-85174689D01*
X195109017Y-85352235D01*
X195273438Y-85502124D01*
X195273439Y-85502125D01*
X195462587Y-85619240D01*
X195462590Y-85619241D01*
X195462599Y-85619247D01*
X195545678Y-85651432D01*
X195651708Y-85692509D01*
X195708003Y-85735768D01*
X195731973Y-85802596D01*
X195716009Y-85871774D01*
X195665178Y-85921340D01*
X195651708Y-85927491D01*
X195462603Y-86000751D01*
X195462587Y-86000759D01*
X195273439Y-86117874D01*
X195273438Y-86117875D01*
X195109017Y-86267764D01*
X194974942Y-86445310D01*
X194974938Y-86445315D01*
X194875774Y-86644462D01*
X194875768Y-86644479D01*
X194814885Y-86858460D01*
X194794357Y-87080000D01*
X194814885Y-87301539D01*
X194875768Y-87515520D01*
X194875774Y-87515537D01*
X194974938Y-87714684D01*
X194974942Y-87714689D01*
X195109017Y-87892235D01*
X195273438Y-88042124D01*
X195273439Y-88042125D01*
X195462587Y-88159240D01*
X195462590Y-88159241D01*
X195462599Y-88159247D01*
X195551568Y-88193714D01*
X195651708Y-88232509D01*
X195708003Y-88275768D01*
X195731973Y-88342596D01*
X195716009Y-88411774D01*
X195665178Y-88461340D01*
X195651708Y-88467491D01*
X195462603Y-88540751D01*
X195462587Y-88540759D01*
X195273439Y-88657874D01*
X195273438Y-88657875D01*
X195109017Y-88807764D01*
X194974942Y-88985310D01*
X194974938Y-88985315D01*
X194875774Y-89184462D01*
X194875768Y-89184479D01*
X194814885Y-89398460D01*
X194794357Y-89620000D01*
X194814885Y-89841539D01*
X194875768Y-90055520D01*
X194875774Y-90055537D01*
X194974938Y-90254684D01*
X194974942Y-90254689D01*
X195109017Y-90432235D01*
X195273438Y-90582124D01*
X195273439Y-90582125D01*
X195462587Y-90699240D01*
X195462590Y-90699241D01*
X195462599Y-90699247D01*
X195545678Y-90731432D01*
X195651708Y-90772509D01*
X195708003Y-90815768D01*
X195731973Y-90882596D01*
X195716009Y-90951774D01*
X195665178Y-91001340D01*
X195651708Y-91007491D01*
X195462603Y-91080751D01*
X195462587Y-91080759D01*
X195273439Y-91197874D01*
X195273438Y-91197875D01*
X195109017Y-91347764D01*
X194974942Y-91525310D01*
X194974938Y-91525315D01*
X194875774Y-91724462D01*
X194875768Y-91724479D01*
X194814885Y-91938460D01*
X194794357Y-92160000D01*
X194814885Y-92381539D01*
X194875768Y-92595520D01*
X194875774Y-92595537D01*
X194974938Y-92794684D01*
X194974942Y-92794689D01*
X195109017Y-92972235D01*
X195273438Y-93122124D01*
X195273439Y-93122125D01*
X195462587Y-93239240D01*
X195462590Y-93239241D01*
X195462599Y-93239247D01*
X195526486Y-93263997D01*
X195651708Y-93312509D01*
X195708003Y-93355768D01*
X195731973Y-93422596D01*
X195716009Y-93491774D01*
X195665178Y-93541340D01*
X195651708Y-93547491D01*
X195462603Y-93620751D01*
X195462587Y-93620759D01*
X195273439Y-93737874D01*
X195273438Y-93737875D01*
X195109017Y-93887764D01*
X194974942Y-94065310D01*
X194974938Y-94065315D01*
X194875774Y-94264462D01*
X194875768Y-94264479D01*
X194814885Y-94478460D01*
X194794357Y-94700000D01*
X194814885Y-94921539D01*
X194875768Y-95135520D01*
X194875774Y-95135537D01*
X194974938Y-95334684D01*
X194974942Y-95334689D01*
X195109017Y-95512235D01*
X195273438Y-95662124D01*
X195273439Y-95662125D01*
X195462587Y-95779240D01*
X195462590Y-95779241D01*
X195462599Y-95779247D01*
X195545678Y-95811432D01*
X195651708Y-95852509D01*
X195708003Y-95895768D01*
X195731973Y-95962596D01*
X195716009Y-96031774D01*
X195665178Y-96081340D01*
X195651708Y-96087491D01*
X195462603Y-96160751D01*
X195462587Y-96160759D01*
X195273439Y-96277874D01*
X195273438Y-96277875D01*
X195109017Y-96427764D01*
X194974942Y-96605310D01*
X194974938Y-96605315D01*
X194875774Y-96804462D01*
X194875768Y-96804479D01*
X194814885Y-97018460D01*
X194794357Y-97240000D01*
X194814885Y-97461539D01*
X194875768Y-97675520D01*
X194875774Y-97675537D01*
X194974938Y-97874684D01*
X194974942Y-97874689D01*
X195109017Y-98052235D01*
X195273438Y-98202124D01*
X195273439Y-98202125D01*
X195462587Y-98319240D01*
X195462590Y-98319241D01*
X195462599Y-98319247D01*
X195545678Y-98351432D01*
X195651708Y-98392509D01*
X195708003Y-98435768D01*
X195731973Y-98502596D01*
X195716009Y-98571774D01*
X195665178Y-98621340D01*
X195651708Y-98627491D01*
X195462603Y-98700751D01*
X195462587Y-98700759D01*
X195273439Y-98817874D01*
X195273438Y-98817875D01*
X195109017Y-98967764D01*
X194974942Y-99145310D01*
X194974938Y-99145315D01*
X194875774Y-99344462D01*
X194875768Y-99344479D01*
X194814885Y-99558460D01*
X194794357Y-99780000D01*
X194814885Y-100001539D01*
X194875768Y-100215520D01*
X194875774Y-100215537D01*
X194974938Y-100414684D01*
X194974942Y-100414689D01*
X195109017Y-100592235D01*
X195273438Y-100742124D01*
X195273439Y-100742125D01*
X195462587Y-100859240D01*
X195462590Y-100859241D01*
X195462599Y-100859247D01*
X195526486Y-100883997D01*
X195651708Y-100932509D01*
X195708003Y-100975768D01*
X195731973Y-101042596D01*
X195716009Y-101111774D01*
X195665178Y-101161340D01*
X195651708Y-101167491D01*
X195462603Y-101240751D01*
X195462587Y-101240759D01*
X195273439Y-101357874D01*
X195273438Y-101357875D01*
X195109017Y-101507764D01*
X194974942Y-101685310D01*
X194974938Y-101685315D01*
X194875774Y-101884462D01*
X194875768Y-101884479D01*
X194814885Y-102098460D01*
X194794357Y-102320000D01*
X194814885Y-102541539D01*
X194875768Y-102755520D01*
X194875774Y-102755537D01*
X194974938Y-102954684D01*
X194974942Y-102954689D01*
X195109017Y-103132235D01*
X195273438Y-103282124D01*
X195273439Y-103282125D01*
X195462587Y-103399240D01*
X195462590Y-103399241D01*
X195462599Y-103399247D01*
X195545678Y-103431432D01*
X195651708Y-103472509D01*
X195708003Y-103515768D01*
X195731973Y-103582596D01*
X195716009Y-103651774D01*
X195665178Y-103701340D01*
X195651708Y-103707491D01*
X195462603Y-103780751D01*
X195462587Y-103780759D01*
X195273439Y-103897874D01*
X195273438Y-103897875D01*
X195109017Y-104047764D01*
X194974942Y-104225310D01*
X194974938Y-104225315D01*
X194875774Y-104424462D01*
X194875768Y-104424479D01*
X194814885Y-104638460D01*
X194794357Y-104860000D01*
X194814885Y-105081539D01*
X194875768Y-105295520D01*
X194875774Y-105295537D01*
X194974938Y-105494684D01*
X194974942Y-105494689D01*
X195109017Y-105672235D01*
X195273438Y-105822124D01*
X195273439Y-105822125D01*
X195462587Y-105939240D01*
X195462590Y-105939241D01*
X195462599Y-105939247D01*
X195545678Y-105971432D01*
X195651708Y-106012509D01*
X195708003Y-106055768D01*
X195731973Y-106122596D01*
X195716009Y-106191774D01*
X195665178Y-106241340D01*
X195651708Y-106247491D01*
X195462603Y-106320751D01*
X195462587Y-106320759D01*
X195273439Y-106437874D01*
X195273438Y-106437875D01*
X195109017Y-106587764D01*
X194974942Y-106765310D01*
X194974938Y-106765315D01*
X194875774Y-106964462D01*
X194875768Y-106964479D01*
X194814885Y-107178460D01*
X194794357Y-107400000D01*
X194814885Y-107621539D01*
X194875768Y-107835520D01*
X194875774Y-107835537D01*
X194974938Y-108034684D01*
X194974942Y-108034689D01*
X195109017Y-108212235D01*
X195273438Y-108362124D01*
X195273439Y-108362125D01*
X195462587Y-108479240D01*
X195462590Y-108479241D01*
X195462599Y-108479247D01*
X195551568Y-108513714D01*
X195651708Y-108552509D01*
X195708003Y-108595768D01*
X195731973Y-108662596D01*
X195716009Y-108731774D01*
X195665178Y-108781340D01*
X195651708Y-108787491D01*
X195462603Y-108860751D01*
X195462587Y-108860759D01*
X195273439Y-108977874D01*
X195273438Y-108977875D01*
X195109017Y-109127764D01*
X194974943Y-109305309D01*
X194974942Y-109305310D01*
X194974942Y-109305311D01*
X194917999Y-109419665D01*
X194869733Y-109471726D01*
X194805211Y-109489500D01*
X175178793Y-109489500D01*
X175110672Y-109469498D01*
X175089698Y-109452595D01*
X172887405Y-107250302D01*
X172853379Y-107187990D01*
X172850500Y-107161207D01*
X172850500Y-89628842D01*
X172850896Y-89621782D01*
X172851097Y-89620000D01*
X172855270Y-89582965D01*
X172849740Y-89553738D01*
X172844211Y-89524512D01*
X172840718Y-89501342D01*
X172835348Y-89465713D01*
X172835345Y-89465708D01*
X172832824Y-89457532D01*
X172830023Y-89449527D01*
X172802222Y-89396926D01*
X172776426Y-89343360D01*
X172771628Y-89336322D01*
X172766562Y-89329458D01*
X172724516Y-89287413D01*
X172684054Y-89243804D01*
X172676674Y-89237919D01*
X172677213Y-89237242D01*
X172664880Y-89227777D01*
X170817854Y-87380751D01*
X168938942Y-85501839D01*
X168934239Y-85496576D01*
X168909880Y-85466031D01*
X168909881Y-85466031D01*
X168860728Y-85432519D01*
X168812879Y-85397204D01*
X168805330Y-85393214D01*
X168797674Y-85389528D01*
X168740822Y-85371992D01*
X168684696Y-85352353D01*
X168676320Y-85350767D01*
X168667905Y-85349500D01*
X168667902Y-85349500D01*
X168608426Y-85349500D01*
X168548990Y-85347276D01*
X168548989Y-85347276D01*
X168539610Y-85348333D01*
X168539512Y-85347471D01*
X168524103Y-85349500D01*
X165341510Y-85349500D01*
X165273389Y-85329498D01*
X165226896Y-85275842D01*
X165216792Y-85205568D01*
X165228719Y-85167337D01*
X165258383Y-85107764D01*
X165324229Y-84975528D01*
X165385115Y-84761536D01*
X165405643Y-84540000D01*
X165385115Y-84318464D01*
X165324229Y-84104472D01*
X165324227Y-84104468D01*
X165324225Y-84104462D01*
X165225061Y-83905315D01*
X165225057Y-83905310D01*
X165090982Y-83727764D01*
X164925728Y-83577115D01*
X164888862Y-83516441D01*
X164890651Y-83445467D01*
X164930527Y-83386727D01*
X164995831Y-83358870D01*
X165010614Y-83358000D01*
X165098585Y-83358000D01*
X165098597Y-83357999D01*
X165159093Y-83351494D01*
X165295964Y-83300444D01*
X165295965Y-83300444D01*
X165412904Y-83212904D01*
X165500444Y-83095965D01*
X165500444Y-83095964D01*
X165551494Y-82959093D01*
X165557999Y-82898597D01*
X165558000Y-82898585D01*
X165558000Y-82254000D01*
X164631116Y-82254000D01*
X164659493Y-82209844D01*
X164700000Y-82071889D01*
X164700000Y-81928111D01*
X164659493Y-81790156D01*
X164631116Y-81746000D01*
X165558000Y-81746000D01*
X165558000Y-81101414D01*
X165557999Y-81101402D01*
X165551494Y-81040906D01*
X165500444Y-80904035D01*
X165500444Y-80904034D01*
X165412904Y-80787095D01*
X165295965Y-80699555D01*
X165159093Y-80648505D01*
X165098597Y-80642000D01*
X164454000Y-80642000D01*
X164454000Y-81566325D01*
X164342315Y-81515320D01*
X164235763Y-81500000D01*
X164164237Y-81500000D01*
X164057685Y-81515320D01*
X163946000Y-81566325D01*
X163946000Y-80642000D01*
X163301402Y-80642000D01*
X163240906Y-80648505D01*
X163104035Y-80699555D01*
X163104034Y-80699555D01*
X162987095Y-80787095D01*
X162899555Y-80904034D01*
X162899555Y-80904035D01*
X162848505Y-81040906D01*
X162842000Y-81101402D01*
X162842000Y-81746000D01*
X163768884Y-81746000D01*
X163740507Y-81790156D01*
X163700000Y-81928111D01*
X163700000Y-82071889D01*
X163740507Y-82209844D01*
X163768884Y-82254000D01*
X162842000Y-82254000D01*
X162842000Y-82898597D01*
X162848505Y-82959093D01*
X162899555Y-83095964D01*
X162899555Y-83095965D01*
X162987095Y-83212904D01*
X163104034Y-83300444D01*
X163240906Y-83351494D01*
X163301402Y-83357999D01*
X163301415Y-83358000D01*
X163389386Y-83358000D01*
X163457507Y-83378002D01*
X163504000Y-83431658D01*
X163514104Y-83501932D01*
X163484610Y-83566512D01*
X163474272Y-83577115D01*
X163309017Y-83727764D01*
X163174942Y-83905310D01*
X163174938Y-83905315D01*
X163075774Y-84104462D01*
X163075768Y-84104479D01*
X163014885Y-84318460D01*
X162994357Y-84540000D01*
X163014885Y-84761539D01*
X163075768Y-84975520D01*
X163075771Y-84975528D01*
X163171281Y-85167337D01*
X163183740Y-85237232D01*
X163156433Y-85302767D01*
X163098030Y-85343135D01*
X163058490Y-85349500D01*
X161228843Y-85349500D01*
X161221788Y-85349104D01*
X161182965Y-85344730D01*
X161182964Y-85344730D01*
X161182963Y-85344730D01*
X161182962Y-85344730D01*
X161143293Y-85352236D01*
X161124520Y-85355788D01*
X161065713Y-85364652D01*
X161065711Y-85364653D01*
X161057536Y-85367174D01*
X161049528Y-85369977D01*
X160996936Y-85397773D01*
X160969159Y-85411149D01*
X160943357Y-85423575D01*
X160936331Y-85428365D01*
X160929462Y-85433434D01*
X160887413Y-85475483D01*
X160843808Y-85515942D01*
X160837919Y-85523327D01*
X160837244Y-85522789D01*
X160827779Y-85535116D01*
X157050302Y-89312595D01*
X156987990Y-89346620D01*
X156961207Y-89349500D01*
X155335676Y-89349500D01*
X155267555Y-89329498D01*
X155221062Y-89275842D01*
X155210958Y-89205568D01*
X155235126Y-89147568D01*
X155265159Y-89107797D01*
X155275058Y-89094689D01*
X155275059Y-89094685D01*
X155275061Y-89094684D01*
X155374225Y-88895537D01*
X155374226Y-88895533D01*
X155374229Y-88895528D01*
X155435115Y-88681536D01*
X155455643Y-88460000D01*
X155435115Y-88238464D01*
X155374229Y-88024472D01*
X155374227Y-88024468D01*
X155374225Y-88024462D01*
X155275061Y-87825315D01*
X155275057Y-87825310D01*
X155140982Y-87647764D01*
X154976561Y-87497875D01*
X154976560Y-87497874D01*
X154787412Y-87380759D01*
X154787405Y-87380755D01*
X154787401Y-87380753D01*
X154628600Y-87319233D01*
X154598291Y-87307491D01*
X154541996Y-87264232D01*
X154518026Y-87197404D01*
X154533990Y-87128226D01*
X154584821Y-87078660D01*
X154598291Y-87072509D01*
X154660613Y-87048365D01*
X154787401Y-86999247D01*
X154976562Y-86882124D01*
X155140981Y-86732236D01*
X155275058Y-86554689D01*
X155275059Y-86554685D01*
X155275061Y-86554684D01*
X155374225Y-86355537D01*
X155374226Y-86355533D01*
X155374229Y-86355528D01*
X155435115Y-86141536D01*
X155455643Y-85920000D01*
X155435115Y-85698464D01*
X155388638Y-85535116D01*
X155374231Y-85484479D01*
X155374225Y-85484462D01*
X155275061Y-85285315D01*
X155275057Y-85285310D01*
X155140982Y-85107764D01*
X154976561Y-84957875D01*
X154976560Y-84957874D01*
X154793454Y-84844500D01*
X154746066Y-84791634D01*
X154734783Y-84721539D01*
X154763187Y-84656472D01*
X154799815Y-84626559D01*
X154995300Y-84520768D01*
X154995301Y-84520767D01*
X155172902Y-84382534D01*
X155325325Y-84216958D01*
X155448419Y-84028548D01*
X155538820Y-83822456D01*
X155538823Y-83822449D01*
X155586544Y-83634000D01*
X154681116Y-83634000D01*
X154709493Y-83589844D01*
X154750000Y-83451889D01*
X154750000Y-83308111D01*
X154709493Y-83170156D01*
X154681116Y-83126000D01*
X155586544Y-83126000D01*
X155586544Y-83125999D01*
X155538823Y-82937550D01*
X155538820Y-82937543D01*
X155448419Y-82731451D01*
X155325325Y-82543041D01*
X155172902Y-82377465D01*
X154995303Y-82239233D01*
X154799814Y-82133440D01*
X154749424Y-82083426D01*
X154734072Y-82014109D01*
X154758633Y-81947496D01*
X154793450Y-81915501D01*
X154976562Y-81802124D01*
X155140981Y-81652236D01*
X155275058Y-81474689D01*
X155275059Y-81474685D01*
X155275061Y-81474684D01*
X155374225Y-81275537D01*
X155374226Y-81275533D01*
X155374229Y-81275528D01*
X155435115Y-81061536D01*
X155455643Y-80840000D01*
X155435115Y-80618464D01*
X155374229Y-80404472D01*
X155374227Y-80404468D01*
X155374225Y-80404462D01*
X155275061Y-80205315D01*
X155275057Y-80205310D01*
X155140982Y-80027764D01*
X154976561Y-79877875D01*
X154976560Y-79877874D01*
X154787412Y-79760759D01*
X154787405Y-79760755D01*
X154787401Y-79760753D01*
X154787396Y-79760751D01*
X154598291Y-79687491D01*
X154541996Y-79644232D01*
X154518026Y-79577404D01*
X154533990Y-79508226D01*
X154584821Y-79458660D01*
X154598291Y-79452509D01*
X154635720Y-79438008D01*
X154787401Y-79379247D01*
X154976562Y-79262124D01*
X155140981Y-79112236D01*
X155275058Y-78934689D01*
X155275059Y-78934685D01*
X155275061Y-78934684D01*
X155374225Y-78735537D01*
X155374226Y-78735533D01*
X155374229Y-78735528D01*
X155435115Y-78521536D01*
X155455643Y-78300000D01*
X155435115Y-78078464D01*
X155374229Y-77864472D01*
X155374227Y-77864468D01*
X155374225Y-77864462D01*
X155275061Y-77665315D01*
X155275057Y-77665310D01*
X155140982Y-77487764D01*
X154976561Y-77337875D01*
X154976560Y-77337874D01*
X154787412Y-77220759D01*
X154787405Y-77220755D01*
X154787401Y-77220753D01*
X154787396Y-77220751D01*
X154579946Y-77140383D01*
X154540972Y-77133097D01*
X154361243Y-77099500D01*
X154138757Y-77099500D01*
X153997674Y-77125873D01*
X153920053Y-77140383D01*
X153712603Y-77220751D01*
X153712587Y-77220759D01*
X153523439Y-77337874D01*
X153523438Y-77337875D01*
X153359017Y-77487764D01*
X153224942Y-77665310D01*
X153224938Y-77665315D01*
X153149290Y-77817238D01*
X153101021Y-77869302D01*
X153032267Y-77887004D01*
X152964857Y-77864724D01*
X152920193Y-77809537D01*
X152910500Y-77761075D01*
X152910500Y-77416744D01*
X152910500Y-77416740D01*
X152900573Y-77348607D01*
X152849198Y-77243517D01*
X152849196Y-77243514D01*
X152766485Y-77160803D01*
X152766482Y-77160801D01*
X152661394Y-77109427D01*
X152593261Y-77099500D01*
X152593260Y-77099500D01*
X150826740Y-77099500D01*
X150826738Y-77099500D01*
X150758605Y-77109427D01*
X150653517Y-77160801D01*
X150653514Y-77160803D01*
X150570803Y-77243514D01*
X150570801Y-77243517D01*
X150519427Y-77348605D01*
X150509500Y-77416738D01*
X150509500Y-79183261D01*
X150519427Y-79251394D01*
X150570801Y-79356482D01*
X150570803Y-79356485D01*
X150653514Y-79439196D01*
X150653517Y-79439198D01*
X150758607Y-79490573D01*
X150826740Y-79500500D01*
X150826745Y-79500500D01*
X151170349Y-79500500D01*
X151238470Y-79520502D01*
X151284963Y-79574158D01*
X151295067Y-79644432D01*
X151265573Y-79709012D01*
X151215866Y-79743991D01*
X151172603Y-79760751D01*
X151172587Y-79760759D01*
X150983439Y-79877874D01*
X150983438Y-79877875D01*
X150819017Y-80027764D01*
X150684942Y-80205310D01*
X150684938Y-80205315D01*
X150585774Y-80404462D01*
X150585768Y-80404479D01*
X150524885Y-80618460D01*
X150504357Y-80840000D01*
X150524885Y-81061539D01*
X150585768Y-81275520D01*
X150585774Y-81275537D01*
X150684938Y-81474684D01*
X150684942Y-81474689D01*
X150819017Y-81652235D01*
X150983438Y-81802124D01*
X150983439Y-81802125D01*
X151172587Y-81919240D01*
X151172590Y-81919241D01*
X151172599Y-81919247D01*
X151245518Y-81947496D01*
X151361708Y-81992509D01*
X151418003Y-82035768D01*
X151441973Y-82102596D01*
X151426009Y-82171774D01*
X151375178Y-82221340D01*
X151361708Y-82227491D01*
X151172603Y-82300751D01*
X151172587Y-82300759D01*
X150983439Y-82417874D01*
X150983438Y-82417875D01*
X150819017Y-82567764D01*
X150684942Y-82745310D01*
X150684938Y-82745315D01*
X150585774Y-82944462D01*
X150585768Y-82944479D01*
X150524885Y-83158460D01*
X150504357Y-83380000D01*
X150524885Y-83601539D01*
X150585768Y-83815520D01*
X150585774Y-83815537D01*
X150684938Y-84014684D01*
X150684942Y-84014689D01*
X150819017Y-84192235D01*
X150983438Y-84342124D01*
X150983439Y-84342125D01*
X151172587Y-84459240D01*
X151172590Y-84459241D01*
X151172599Y-84459247D01*
X151261568Y-84493714D01*
X151361708Y-84532509D01*
X151418003Y-84575768D01*
X151441973Y-84642596D01*
X151426009Y-84711774D01*
X151375178Y-84761340D01*
X151361708Y-84767491D01*
X151172603Y-84840751D01*
X151172587Y-84840759D01*
X150983439Y-84957874D01*
X150983438Y-84957875D01*
X150819017Y-85107764D01*
X150684942Y-85285310D01*
X150684938Y-85285315D01*
X150585774Y-85484462D01*
X150585768Y-85484479D01*
X150524885Y-85698460D01*
X150504357Y-85920000D01*
X150524885Y-86141539D01*
X150585768Y-86355520D01*
X150585774Y-86355537D01*
X150684938Y-86554684D01*
X150684942Y-86554689D01*
X150819017Y-86732235D01*
X150983435Y-86882122D01*
X150983437Y-86882123D01*
X150983438Y-86882124D01*
X151166546Y-86995499D01*
X151213933Y-87048365D01*
X151225216Y-87118460D01*
X151196812Y-87183527D01*
X151160185Y-87213439D01*
X150964704Y-87319228D01*
X150964698Y-87319232D01*
X150787097Y-87457465D01*
X150634674Y-87623041D01*
X150511580Y-87811451D01*
X150421179Y-88017543D01*
X150421176Y-88017550D01*
X150373455Y-88205999D01*
X150373456Y-88206000D01*
X151278884Y-88206000D01*
X151250507Y-88250156D01*
X151210000Y-88388111D01*
X151210000Y-88531889D01*
X151250507Y-88669844D01*
X151278884Y-88714000D01*
X150373455Y-88714000D01*
X150421176Y-88902449D01*
X150421179Y-88902456D01*
X150511580Y-89108548D01*
X150541657Y-89154584D01*
X150562170Y-89222552D01*
X150542681Y-89290822D01*
X150489377Y-89337717D01*
X150436174Y-89349500D01*
X149828844Y-89349500D01*
X149821787Y-89349104D01*
X149782965Y-89344730D01*
X149782964Y-89344730D01*
X149782962Y-89344730D01*
X149724508Y-89355788D01*
X149665715Y-89364651D01*
X149657538Y-89367173D01*
X149649526Y-89369976D01*
X149596915Y-89397783D01*
X149543361Y-89423573D01*
X149536293Y-89428391D01*
X149529462Y-89433433D01*
X149487400Y-89475495D01*
X149443808Y-89515941D01*
X149437923Y-89523322D01*
X149437247Y-89522783D01*
X149427784Y-89535110D01*
X148701838Y-90261057D01*
X148696567Y-90265768D01*
X148666030Y-90290120D01*
X148632519Y-90339271D01*
X148597204Y-90387120D01*
X148593215Y-90394669D01*
X148589527Y-90402328D01*
X148571992Y-90459177D01*
X148552354Y-90515301D01*
X148550766Y-90523688D01*
X148549500Y-90532096D01*
X148549500Y-90532098D01*
X148549500Y-90591573D01*
X148547282Y-90650864D01*
X148547276Y-90651011D01*
X148548333Y-90660390D01*
X148547470Y-90660487D01*
X148549500Y-90675896D01*
X148549500Y-94571156D01*
X148549104Y-94578215D01*
X148544730Y-94617036D01*
X148050500Y-94617036D01*
X148050500Y-89929997D01*
X148070502Y-89861876D01*
X148087488Y-89842054D01*
X148087315Y-89841901D01*
X148092362Y-89836202D01*
X148092367Y-89836199D01*
X148182449Y-89705693D01*
X148238682Y-89557421D01*
X148238682Y-89557420D01*
X148238683Y-89557418D01*
X148257796Y-89400002D01*
X148257796Y-89399997D01*
X148238683Y-89242581D01*
X148216647Y-89184479D01*
X148182449Y-89094307D01*
X148124121Y-89009804D01*
X148092368Y-88963802D01*
X148088077Y-88960000D01*
X147973671Y-88858645D01*
X147973670Y-88858644D01*
X147833258Y-88784950D01*
X147833255Y-88784949D01*
X147679290Y-88747000D01*
X147679289Y-88747000D01*
X147520711Y-88747000D01*
X147520709Y-88747000D01*
X147366744Y-88784949D01*
X147366741Y-88784950D01*
X147226329Y-88858644D01*
X147226327Y-88858646D01*
X147107631Y-88963802D01*
X147017553Y-89094303D01*
X147017550Y-89094309D01*
X146961316Y-89242581D01*
X146942204Y-89399997D01*
X146942204Y-89400002D01*
X116166812Y-89400002D01*
X116139198Y-89343517D01*
X116139196Y-89343514D01*
X116056485Y-89260803D01*
X116056482Y-89260801D01*
X115951394Y-89209427D01*
X115883261Y-89199500D01*
X115883260Y-89199500D01*
X112316740Y-89199500D01*
X112316738Y-89199500D01*
X112248605Y-89209427D01*
X112143517Y-89260801D01*
X112143514Y-89260803D01*
X112060803Y-89343514D01*
X112060801Y-89343517D01*
X112009427Y-89448605D01*
X111999500Y-89516738D01*
X111999500Y-93083261D01*
X109837765Y-93083261D01*
X109948555Y-92923346D01*
X109948558Y-92923340D01*
X110042202Y-92717176D01*
X110042205Y-92717167D01*
X110097532Y-92497593D01*
X110108000Y-92364613D01*
X110108000Y-91554000D01*
X108600000Y-91554000D01*
X108600000Y-91046000D01*
X110108000Y-91046000D01*
X110108000Y-90235387D01*
X110097532Y-90102406D01*
X110042205Y-89882832D01*
X110042202Y-89882823D01*
X109948558Y-89676659D01*
X109948555Y-89676653D01*
X109819605Y-89490526D01*
X109819591Y-89490509D01*
X109659490Y-89330408D01*
X109659473Y-89330394D01*
X109473346Y-89201444D01*
X109473340Y-89201441D01*
X109267176Y-89107797D01*
X109267167Y-89107794D01*
X109047593Y-89052467D01*
X108914613Y-89042000D01*
X108354000Y-89042000D01*
X108354000Y-89868884D01*
X108309844Y-89840507D01*
X108171889Y-89800000D01*
X108028111Y-89800000D01*
X107890156Y-89840507D01*
X107846000Y-89868884D01*
X107846000Y-89042000D01*
X107285387Y-89042000D01*
X107152406Y-89052467D01*
X106932832Y-89107794D01*
X106932823Y-89107797D01*
X106726659Y-89201441D01*
X106726653Y-89201444D01*
X106540526Y-89330394D01*
X106540509Y-89330408D01*
X106380408Y-89490509D01*
X106380394Y-89490526D01*
X106251444Y-89676653D01*
X106251441Y-89676659D01*
X106157797Y-89882823D01*
X106157794Y-89882832D01*
X106102467Y-90102406D01*
X106092000Y-90235387D01*
X106092000Y-91046000D01*
X107600000Y-91046000D01*
X107600000Y-91554000D01*
X106092000Y-91554000D01*
X106092000Y-92364613D01*
X100500000Y-92364613D01*
X100500000Y-73569596D01*
X102095687Y-73569596D01*
X102126114Y-73846128D01*
X102196480Y-74115278D01*
X102269016Y-74285968D01*
X102305284Y-74371314D01*
X102450208Y-74608781D01*
X102628163Y-74822617D01*
X102835357Y-75008263D01*
X103067373Y-75161763D01*
X103319267Y-75279846D01*
X103585669Y-75359995D01*
X103860895Y-75400499D01*
X103860898Y-75400500D01*
X103860901Y-75400500D01*
X104069465Y-75400500D01*
X104102315Y-75398095D01*
X104277455Y-75385277D01*
X104548997Y-75324788D01*
X104808838Y-75225408D01*
X105051440Y-75089253D01*
X105271632Y-74919226D01*
X105464722Y-74718951D01*
X105626593Y-74492696D01*
X105753797Y-74245283D01*
X105843621Y-73981986D01*
X105894152Y-73708416D01*
X105899226Y-73569596D01*
X151095687Y-73569596D01*
X151126114Y-73846128D01*
X151196480Y-74115278D01*
X151269016Y-74285968D01*
X151305284Y-74371314D01*
X151450208Y-74608781D01*
X151628163Y-74822617D01*
X151835357Y-75008263D01*
X152067373Y-75161763D01*
X152319267Y-75279846D01*
X152585669Y-75359995D01*
X152860895Y-75400499D01*
X152860898Y-75400500D01*
X152860901Y-75400500D01*
X153069465Y-75400500D01*
X153102315Y-75398095D01*
X153277455Y-75385277D01*
X153548997Y-75324788D01*
X153808838Y-75225408D01*
X154051440Y-75089253D01*
X154271632Y-74919226D01*
X154464722Y-74718951D01*
X154626593Y-74492696D01*
X154753797Y-74245283D01*
X154843621Y-73981986D01*
X154894152Y-73708416D01*
X154904313Y-73430404D01*
X154873886Y-73153876D01*
X154803520Y-72884724D01*
X154694716Y-72628686D01*
X154549792Y-72391219D01*
X154371837Y-72177383D01*
X154164643Y-71991737D01*
X153932627Y-71838237D01*
X153796860Y-71774592D01*
X153680734Y-71720154D01*
X153601263Y-71696244D01*
X153414331Y-71640005D01*
X153414326Y-71640004D01*
X153414322Y-71640003D01*
X153139103Y-71599500D01*
X153139099Y-71599500D01*
X152930537Y-71599500D01*
X152930535Y-71599500D01*
X152722541Y-71614723D01*
X152451009Y-71675210D01*
X152450997Y-71675214D01*
X152191161Y-71774592D01*
X151948559Y-71910747D01*
X151728366Y-72080775D01*
X151728365Y-72080776D01*
X151535280Y-72281046D01*
X151373404Y-72507307D01*
X151246204Y-72754714D01*
X151156377Y-73018020D01*
X151105847Y-73291587D01*
X151095687Y-73569596D01*
X105899226Y-73569596D01*
X105904313Y-73430404D01*
X105873886Y-73153876D01*
X105803520Y-72884724D01*
X105694716Y-72628686D01*
X105549792Y-72391219D01*
X105371837Y-72177383D01*
X105164643Y-71991737D01*
X104932627Y-71838237D01*
X104796860Y-71774592D01*
X104680734Y-71720154D01*
X104601263Y-71696244D01*
X104414331Y-71640005D01*
X104414326Y-71640004D01*
X104414322Y-71640003D01*
X104139103Y-71599500D01*
X104139099Y-71599500D01*
X103930537Y-71599500D01*
X103930535Y-71599500D01*
X103722541Y-71614723D01*
X103451009Y-71675210D01*
X103450997Y-71675214D01*
X103191161Y-71774592D01*
X102948559Y-71910747D01*
X102728366Y-72080775D01*
X102728365Y-72080776D01*
X102535280Y-72281046D01*
X102373404Y-72507307D01*
X102246204Y-72754714D01*
X102156377Y-73018020D01*
X102105847Y-73291587D01*
X102095687Y-73569596D01*
X100500000Y-73569596D01*
X100500000Y-71569596D01*
X194095687Y-71569596D01*
X194126114Y-71846128D01*
X194196480Y-72115278D01*
X194266924Y-72281046D01*
X194305284Y-72371314D01*
X194450208Y-72608781D01*
X194628163Y-72822617D01*
X194835357Y-73008263D01*
X195067373Y-73161763D01*
X195319267Y-73279846D01*
X195585669Y-73359995D01*
X195860895Y-73400499D01*
X195860898Y-73400500D01*
X195860901Y-73400500D01*
X196069465Y-73400500D01*
X196102315Y-73398095D01*
X196277455Y-73385277D01*
X196548997Y-73324788D01*
X196808838Y-73225408D01*
X197051440Y-73089253D01*
X197271632Y-72919226D01*
X197464722Y-72718951D01*
X197626593Y-72492696D01*
X197753797Y-72245283D01*
X197843621Y-71981986D01*
X197894152Y-71708416D01*
X197904313Y-71430404D01*
X197873886Y-71153876D01*
X197803520Y-70884724D01*
X197694716Y-70628686D01*
X197549792Y-70391219D01*
X197371837Y-70177383D01*
X197164643Y-69991737D01*
X196932627Y-69838237D01*
X196796860Y-69774592D01*
X196680734Y-69720154D01*
X196601263Y-69696244D01*
X196414331Y-69640005D01*
X196414326Y-69640004D01*
X196414322Y-69640003D01*
X196139103Y-69599500D01*
X196139099Y-69599500D01*
X195930537Y-69599500D01*
X195930535Y-69599500D01*
X195722541Y-69614723D01*
X195451009Y-69675210D01*
X195450997Y-69675214D01*
X195191161Y-69774592D01*
X194948559Y-69910747D01*
X194728366Y-70080775D01*
X194728365Y-70080776D01*
X194535280Y-70281046D01*
X194373404Y-70507307D01*
X194246204Y-70754714D01*
X194156377Y-71018020D01*
X194105847Y-71291587D01*
X194095687Y-71569596D01*
X100500000Y-71569596D01*
X100500000Y-66621402D01*
X100511099Y-66569695D01*
X100550880Y-66481303D01*
X100554407Y-66474585D01*
X100687884Y-66253789D01*
X100692188Y-66247553D01*
X100851310Y-66044449D01*
X100856335Y-66038777D01*
X101038777Y-65856335D01*
X101044449Y-65851310D01*
X101247553Y-65692188D01*
X101253789Y-65687884D01*
X101474581Y-65554409D01*
X101481314Y-65550876D01*
X101569696Y-65511100D01*
X101621406Y-65500000D01*
X198378594Y-65500000D01*
X198430305Y-65511100D01*
G37*
G04 #@! TD.AperFunction*
M02*
